<svg width="160" height="160" viewBox="0 0 160 160" fill="none" xmlns="http://www.w3.org/2000/svg">
<g clip-path="url(#clip0_238_509)">
<g clip-path="url(#clip1_238_509)">
<path d="M58.9078 156.197C93.007 168.556 130.669 150.932 143.028 116.833C155.388 82.7338 137.764 45.0717 103.665 32.7124C69.5653 20.3532 31.9032 37.977 19.544 72.0762C7.18471 106.176 24.8085 143.838 58.9078 156.197Z" fill="url(#paint0_linear_238_509)" stroke="black" stroke-width="0.993865"/>
<mask id="mask0_238_509" style="mask-type:alpha" maskUnits="userSpaceOnUse" x="16" y="29" width="131" height="131">
<path d="M59.0751 155.726C92.9164 167.992 130.293 150.501 142.559 116.66C154.825 82.8187 137.335 45.4416 103.493 33.1759C69.652 20.9101 32.2749 38.4006 20.0092 72.2418C7.74346 106.083 25.2339 143.46 59.0751 155.726Z" fill="white"/>
</mask>
<g mask="url(#mask0_238_509)">
<path d="M71.318 24.2883C73.4586 23.841 75.6335 23.5777 77.8189 23.5012C79.3495 23.4316 80.877 23.3442 82.4046 23.2955C84.2597 23.2293 86.1171 23.288 87.9643 23.4714C91.1476 23.7874 94.174 24.6918 97.2202 25.5615C98.4287 25.9044 99.6154 26.3188 100.811 26.7054C104.599 27.9219 107.986 29.9236 111.229 32.1776C113.449 33.6837 115.518 35.4022 117.406 37.309C121.103 41.1503 123.911 45.7562 125.634 50.8017C127.096 55.1064 127.914 59.6035 128.061 64.1473C128.189 67.3177 128.158 70.4931 127.967 73.6606C127.736 77.7046 127.607 81.7516 127.392 85.7937C127.267 88.3082 127.097 90.8206 126.935 93.3341C126.732 96.7759 126.52 100.217 126.329 103.66C126.215 105.68 126.12 107.701 126.042 109.723C125.73 118.568 126.361 127.322 128.476 135.944C129.182 138.81 129.884 141.682 130.463 144.575C131.2 148.139 130.843 151.842 129.439 155.2C127.64 159.567 123.692 161.327 119.765 161.073C117.792 160.947 115.873 160.371 114.157 159.389C112.707 158.597 111.485 157.446 110.609 156.045C110.183 155.344 109.776 154.632 109.39 153.908C108.749 152.63 107.813 151.523 106.66 150.678C106.525 150.57 106.401 150.447 106.292 150.312C106.396 150.168 106.461 149.988 106.585 149.937C107.328 149.574 108.17 149.467 108.981 149.632C109.529 149.706 110.033 149.976 110.4 150.391C110.64 150.689 110.902 150.969 111.183 151.23C111.22 151.271 111.265 151.304 111.316 151.326C111.367 151.347 111.422 151.357 111.477 151.355C111.532 151.353 111.586 151.339 111.635 151.314C111.685 151.289 111.728 151.254 111.762 151.211C111.825 151.128 111.871 151.034 111.895 150.933C111.92 150.832 111.924 150.728 111.907 150.625C111.375 149.628 110.646 148.844 109.476 148.608C107.222 148.132 105.383 148.874 103.863 150.52C103.307 151.123 102.833 151.801 102.275 152.384C101.697 153.043 101.068 153.654 100.392 154.212C99.603 154.855 98.6649 155.289 97.6642 155.473C96.6636 155.657 95.6326 155.585 94.6669 155.265C93.2397 154.826 92.0336 153.86 91.2947 152.563C90.9527 151.94 90.6538 151.294 90.4003 150.63C90.0951 149.929 89.8437 149.2 89.5048 148.519C89.263 148.03 88.9561 147.575 88.5924 147.167C88.0877 146.579 87.3998 146.179 86.6397 146.031C85.8796 145.883 85.0917 145.995 84.4033 146.35C83.7781 146.684 83.1924 147.088 82.6571 147.552C82.1144 148.006 81.6612 148.567 81.1345 149.051C80.4387 149.741 79.7033 150.389 78.932 150.991C77.3137 152.152 75.3241 152.676 73.3438 152.462C71.3636 152.248 69.5316 151.312 68.1983 149.832C67.5363 149.034 66.9268 148.193 66.3736 147.315C65.9701 146.729 65.651 146.083 65.2306 145.51C64.8438 144.981 64.4035 144.493 63.9167 144.054C63.2978 143.5 62.5017 143.184 61.6712 143.164C60.8407 143.144 60.0301 143.42 59.3847 143.943C58.9552 144.279 58.5663 144.664 58.2259 145.091C57.7478 145.69 57.3453 146.344 56.904 146.984C56.367 147.811 55.6994 148.545 54.9272 149.159C53.6874 150.089 52.1398 150.512 50.5992 150.342C49.0586 150.172 47.6406 149.421 46.6334 148.243C46.0251 147.468 45.4848 146.642 45.0184 145.774C44.6049 145.069 44.3008 144.298 43.8903 143.6C42.809 141.72 41.2397 140.599 39.0005 140.502C37.7791 140.451 36.8965 141.017 36.1223 141.807C36.084 141.845 36.0537 141.891 36.0332 141.942C36.0127 141.992 36.0025 142.046 36.003 142.1C35.9901 142.259 36.0309 142.418 36.1183 142.551C36.1735 142.604 36.2409 142.642 36.3145 142.662C36.3881 142.682 36.4655 142.683 36.5397 142.666C36.8379 142.533 37.1201 142.365 37.3785 142.165C37.7654 141.858 38.2285 141.663 38.7179 141.601C39.2073 141.538 39.7047 141.609 40.1564 141.808C40.6036 142.001 41.034 142.229 41.4435 142.493C41.4821 142.53 41.5116 142.576 41.5295 142.627C41.5474 142.678 41.5534 142.732 41.5468 142.786C41.5405 142.839 41.5223 142.891 41.4933 142.937C41.4644 142.982 41.4257 143.021 41.3798 143.049C41.185 143.146 40.9823 143.229 40.7805 143.316C39.8283 143.743 38.9736 144.36 38.269 145.13C37.6727 145.769 37.0863 146.422 36.492 147.065C34.9179 148.768 32.8161 149.89 30.5258 150.251C28.3672 150.681 26.133 150.519 24.0588 149.782C20.7552 148.585 18.7386 146.23 17.9892 142.818C17.5311 140.756 17.6454 138.687 17.9127 136.611C18.1475 134.817 18.6697 133.073 19.4592 131.446C20.6642 128.931 21.8913 126.426 23.1404 123.932C25.6841 118.901 27.7421 113.638 29.2865 108.216C30.7032 103.1 31.8451 97.9122 32.7074 92.6742C33.4359 88.3608 34.1485 84.0405 34.8939 79.7241C35.4912 76.2744 36.1203 72.8277 36.7445 69.386C37.2811 66.4242 37.8019 63.4566 38.3943 60.5048C39.2055 56.142 40.4542 51.872 42.1213 47.7595C44.7217 41.3931 48.9752 35.8367 54.4422 31.6648C56.1988 30.3537 58.0804 29.2188 60.0595 28.2767C63.6414 26.5067 67.4207 25.1679 71.318 24.2883Z" fill="white"/>
<path d="M129.057 74.3175C128.919 76.83 128.839 79.3444 128.726 81.8599C128.643 83.7191 128.548 85.5776 128.441 87.4355C128.258 90.3813 128.043 93.3301 127.867 96.2809C127.709 99.0111 127.58 101.741 127.446 104.475C127.357 106.277 127.285 108.082 127.209 109.885C126.772 119.296 127.758 128.719 130.135 137.835C130.738 140.106 131.213 142.411 131.657 144.72C132.328 148.294 131.965 151.985 130.606 155.359C128.149 161.683 121.948 163.058 117.327 161.836C115.62 161.422 114.003 160.698 112.556 159.7C111.004 158.563 109.746 157.07 108.888 155.347C108.518 154.615 108.111 153.902 107.669 153.212C107.16 152.358 106.405 151.679 105.504 151.261C105.358 151.184 105.191 151.158 105.029 151.189C104.868 151.219 104.721 151.304 104.613 151.428C104.241 151.823 103.904 152.259 103.53 152.658C102.856 153.399 102.215 154.144 101.491 154.789C100.219 155.947 98.5784 156.618 96.8594 156.683C95.1404 156.748 93.454 156.202 92.0987 155.143C91.2004 154.44 90.4797 153.535 89.9947 152.503C89.6836 151.866 89.459 151.185 89.1738 150.535C88.8954 149.822 88.5645 149.13 88.1839 148.466C87.2675 147.01 85.8105 146.692 84.3674 147.647C83.7059 148.131 83.0835 148.667 82.5059 149.249C81.7824 149.915 81.1185 150.644 80.3691 151.286C77.951 153.354 75.1613 153.892 72.0813 153.239C69.7994 152.789 67.7871 151.457 66.4808 149.532C65.8249 148.594 65.2524 147.591 64.6084 146.642C64.2605 146.085 63.8537 145.568 63.3949 145.099C63.1608 144.844 62.8769 144.641 62.5607 144.501C62.2445 144.361 61.9029 144.288 61.5572 144.287C61.2113 144.285 60.8689 144.355 60.5515 144.493C60.2342 144.63 59.9488 144.832 59.7136 145.086C59.1574 145.686 58.6452 146.326 58.1811 147C57.7517 147.568 57.379 148.176 56.9268 148.725C56.2246 149.607 55.3271 150.312 54.3052 150.787C53.2833 151.262 52.1649 151.493 51.0385 151.461C49.9121 151.429 48.8085 151.136 47.8149 150.605C46.8213 150.073 45.965 149.318 45.3135 148.398C44.7828 147.638 44.3246 146.824 43.8605 146.022C43.5822 145.548 43.3715 145.041 43.1071 144.565C42.7454 143.906 42.5009 143.816 41.7634 144.042C40.8744 144.331 40.0714 144.836 39.4268 145.513C38.8524 146.097 38.3177 146.724 37.7731 147.336C34.4366 151.097 30.161 152.238 25.4163 151.304C20.2462 150.301 17.0977 146.725 16.6435 141.239C16.5332 139.885 16.6216 138.512 16.6186 137.146C16.8701 135.182 17.4137 133.267 18.2327 131.464C19.459 128.839 20.724 126.232 22.0272 123.644C24.8295 118.132 27.0364 112.338 28.6106 106.359C29.7462 102.02 30.688 97.6332 31.4332 93.2109C32.281 88.1908 33.1864 83.1847 34.0649 78.1717C34.8084 73.913 35.506 69.6483 36.3051 65.3995C36.9392 62.0154 37.5872 58.6243 38.424 55.284C40.048 48.806 42.6181 42.7473 46.847 37.4818C50.3418 33.0289 54.8306 29.456 59.9541 27.0492C63.6054 25.2939 67.4492 23.9711 71.4074 23.1076C73.5008 22.7028 75.6205 22.4487 77.7503 22.3473C79.4935 22.2399 81.2417 22.2201 82.9909 22.1306C86.1097 21.9706 89.2344 22.2698 92.2657 23.0201C95.45 23.7953 98.6165 24.7147 101.699 25.801C105.443 27.1148 108.825 29.1195 112.055 31.3885C114.452 33.0268 116.67 34.9122 118.674 37.0137C122.285 40.9338 125.031 45.5699 126.734 50.6207C128.218 55.0912 129.04 59.7548 129.173 64.4633C129.335 67.7629 129.232 71.0397 129.057 74.3175ZM119.763 161.076C123.698 161.332 127.647 159.572 129.437 155.204C130.849 151.85 131.214 148.147 130.486 144.582C129.905 141.688 129.205 138.817 128.499 135.95C126.384 127.329 125.753 118.575 126.065 109.729C126.134 107.708 126.229 105.687 126.352 103.666C126.543 100.224 126.734 96.7798 126.958 93.3401C127.107 90.8256 127.277 88.3131 127.414 85.8006C127.612 81.7556 127.742 77.7085 127.989 73.6665C128.18 70.499 128.212 67.3246 128.084 64.1532C127.936 59.6094 127.119 55.1123 125.657 50.8076C123.933 45.7629 121.124 41.1575 117.428 37.3159C115.539 35.4088 113.469 33.6899 111.247 32.1836C108.005 29.9295 104.617 27.9278 100.83 26.7113C99.6471 26.3267 98.4674 25.9133 97.238 25.5674C94.1918 24.6978 91.1655 23.7933 87.9831 23.4773C86.1359 23.2939 84.2785 23.2351 82.4234 23.3014C80.8959 23.3511 79.3683 23.4365 77.8377 23.5071C75.6523 23.5836 73.4774 23.8469 71.3369 24.2943C67.4382 25.1735 63.6576 26.5124 60.0744 28.2826C58.0895 29.2232 56.2022 30.3574 54.4402 31.6687C48.9736 35.8408 44.7204 41.3971 42.1202 47.7634C40.4539 51.8721 39.2053 56.1381 38.3932 60.4968C37.8009 63.4486 37.2801 66.4153 36.7434 69.377C36.1193 72.8197 35.4901 76.2654 34.8938 79.7152C34.1484 84.0315 33.4348 88.3518 32.7063 92.6652C31.8442 97.9033 30.7023 103.091 29.2854 108.207C27.7492 113.63 25.6992 118.893 23.1632 123.926C21.912 126.419 20.6848 128.924 19.482 131.44C18.6938 133.075 18.1749 134.826 17.9454 136.627C17.6831 138.699 17.5628 140.772 18.022 142.834C18.7833 146.247 20.7899 148.584 24.0915 149.799C26.1647 150.535 28.3999 150.697 30.5586 150.267C32.8486 149.906 34.9503 148.784 36.5248 147.082C37.1181 146.438 37.7045 145.785 38.3018 145.146C39.0025 144.382 39.8512 143.768 40.7964 143.342C40.9981 143.255 41.1999 143.171 41.3947 143.076C41.4403 143.047 41.479 143.009 41.5078 142.963C41.5367 142.918 41.5551 142.866 41.5617 142.813C41.5679 142.759 41.5619 142.705 41.5442 142.654C41.5264 142.603 41.4974 142.557 41.4593 142.518C41.0447 142.247 40.6078 142.01 40.1534 141.812C39.7004 141.609 39.2005 141.535 38.7081 141.596C38.2157 141.658 37.7496 141.854 37.3606 142.162C37.1022 142.363 36.8199 142.531 36.5208 142.664C36.4467 142.68 36.3696 142.679 36.2963 142.659C36.223 142.639 36.1557 142.601 36.1004 142.549C36.0126 142.416 35.9717 142.257 35.9841 142.098C35.9832 142.044 35.9934 141.99 36.0139 141.939C36.0344 141.889 36.0648 141.843 36.1034 141.805C36.8955 141.004 37.779 140.439 38.9826 140.499C41.2218 140.597 42.7901 141.718 43.8724 143.597C44.2799 144.311 44.585 145.083 45.0004 145.772C45.4676 146.637 46.0082 147.461 46.6165 148.232C47.6231 149.411 49.0411 150.162 50.5819 150.332C52.1228 150.503 53.6706 150.079 54.9103 149.149C55.6821 148.535 56.3494 147.801 56.8861 146.974C57.3263 146.346 57.7328 145.693 58.2079 145.081C58.5482 144.654 58.9371 144.269 59.3668 143.933C60.0122 143.41 60.8224 143.134 61.6526 143.154C62.4833 143.174 63.2794 143.49 63.8988 144.044C64.3858 144.483 64.8261 144.97 65.2127 145.5C65.6341 146.073 65.9521 146.719 66.3556 147.305C66.9092 148.183 67.5184 149.023 68.1813 149.821C69.5133 151.307 71.347 152.249 73.3305 152.465C75.3141 152.682 77.3078 152.158 78.929 150.995C79.7066 150.392 80.4476 149.744 81.1483 149.053C81.675 148.569 82.1273 148.008 82.6709 147.554C83.206 147.089 83.7918 146.686 84.4171 146.352C85.1055 145.997 85.8932 145.885 86.6533 146.033C87.4133 146.181 88.1013 146.581 88.6063 147.168C88.97 147.578 89.2771 148.036 89.5176 148.528C89.8486 149.209 90.108 149.939 90.4121 150.64C90.6665 151.304 90.9647 151.949 91.3076 152.571C92.0458 153.869 93.2516 154.836 94.6788 155.275C95.6447 155.595 96.6757 155.666 97.6764 155.482C98.6772 155.298 99.6154 154.865 100.404 154.222C101.08 153.664 101.71 153.052 102.288 152.393C102.847 151.794 103.321 151.116 103.877 150.53C105.396 148.884 107.236 148.142 109.488 148.618C110.659 148.862 111.387 149.653 111.919 150.635C111.937 150.737 111.934 150.842 111.909 150.943C111.884 151.043 111.839 151.138 111.775 151.22C111.724 151.286 111.653 151.334 111.572 151.355C111.49 151.375 111.405 151.369 111.328 151.335C111.278 151.313 111.233 151.281 111.196 151.24C110.915 150.979 110.653 150.699 110.413 150.401C110.046 149.986 109.543 149.716 108.994 149.641C108.184 149.477 107.342 149.584 106.599 149.947C106.473 150.01 106.407 150.19 106.306 150.322C106.415 150.456 106.539 150.579 106.674 150.687C107.826 151.533 108.762 152.64 109.403 153.918C109.795 154.638 110.191 155.358 110.622 156.054C111.498 157.455 112.72 158.607 114.169 159.399C115.882 160.376 117.795 160.95 119.762 161.076H119.763Z" fill="black"/>
<path d="M106.112 69.7689C105.909 72.2665 104.764 74.5935 102.91 76.2787C101.927 77.2393 100.708 77.9242 99.3764 78.2644C98.0447 78.6046 96.6469 78.5882 95.3236 78.2167C94.3367 77.9651 93.4176 77.4985 92.6321 76.8502C91.8465 76.202 91.214 75.3881 90.7797 74.4669C87.9193 68.9142 91.2806 62.5505 96.0899 60.9305C97.8396 60.3255 99.7516 60.3919 101.455 61.1167C103.159 61.8415 104.532 63.1731 105.31 64.8532C106.062 66.3749 106.342 68.087 106.112 69.7689ZM90.8333 69.5443C90.706 70.7291 90.869 71.9271 91.3084 73.0347C91.7724 74.4531 92.721 75.6628 93.9879 76.4517C94.7084 76.8333 95.4687 77.1374 96.2529 77.358C96.4566 77.4306 96.8303 77.5598 96.9078 77.1762C96.9198 77.0668 96.6743 76.8581 96.5053 76.7578C96.1793 76.5689 95.7997 76.4556 95.4896 76.231C95.0221 75.9441 94.6238 75.5575 94.3231 75.0987C94.0225 74.64 93.8269 74.1205 93.7503 73.5774C93.6965 73.2801 93.728 72.9736 93.841 72.6934C93.9541 72.4132 94.1443 72.1708 94.3894 71.9942C94.6498 71.7954 94.9609 71.6503 95.2044 71.4456C95.3422 71.3149 95.4477 71.1538 95.5123 70.9752C95.5769 70.7966 95.5988 70.6053 95.5764 70.4167C95.554 70.2281 95.4879 70.0473 95.3833 69.8887C95.2786 69.7302 95.1384 69.5983 94.9738 69.5035C94.7182 69.3906 94.4564 69.2923 94.1896 69.2094C93.1997 68.8178 92.9473 68.3049 93.2852 67.2932C93.4045 66.9294 93.5704 66.5826 93.7792 66.2615C94.1747 65.6732 94.6051 65.1285 95.0404 64.5451C95.2709 64.244 95.5472 63.9737 95.7868 63.6735C95.907 63.5611 95.9873 63.4126 96.0154 63.2505C96.0436 63.0883 96.0181 62.9214 95.9428 62.7751C95.7907 62.5037 95.3137 62.4491 94.9012 62.6956C94.4783 62.9455 94.0806 63.2357 93.7136 63.5622C92.1055 65.0918 91.1633 66.9553 90.8492 69.5453L90.8333 69.5443ZM67.0005 75.0384C63.9473 74.7611 61.9785 73.312 60.7689 70.9069C58.1034 65.6295 61.1267 59.2141 66.1179 57.5046C67.7584 56.9258 69.55 56.941 71.1804 57.5476C72.8108 58.1542 74.1766 59.3138 75.0398 60.8241C77.8077 65.6424 75.5666 72.0498 70.8378 74.293C69.6583 74.9081 68.3254 75.1671 67.0014 75.0384H67.0005ZM60.918 65.6583C60.7556 67.0669 60.9434 68.4939 61.4646 69.8126C62.0233 71.318 63.1253 72.5596 64.5536 73.2931C65.2314 73.6281 65.9261 73.9908 66.7271 73.9272C66.7754 73.9212 66.8215 73.9037 66.8616 73.8762C66.9017 73.8487 66.9347 73.812 66.9577 73.7692C66.9673 73.7184 66.9646 73.6661 66.9497 73.6166C66.9348 73.5672 66.9082 73.522 66.8722 73.485C66.5373 73.3041 66.1765 73.1719 65.8496 72.9831C64.972 72.513 64.2994 71.7349 63.9612 70.7985C63.5895 69.758 63.8221 69.0444 64.7245 68.3904C64.9541 68.2503 65.1717 68.0883 65.3725 67.9084C65.4942 67.7785 65.5844 67.6223 65.6362 67.452C65.6879 67.2817 65.6999 67.1017 65.6711 66.9261C65.6423 66.7504 65.5735 66.5837 65.47 66.4388C65.3665 66.294 65.2312 66.1748 65.0743 66.0906C64.7384 65.9177 64.3548 65.8362 64.0039 65.6901C63.7146 65.5918 63.4749 65.3848 63.3358 65.1127C63.1966 64.8407 63.1689 64.5252 63.2586 64.2331C63.363 63.8094 63.5309 63.404 63.7565 63.0305C64.163 62.3815 64.6291 61.7772 65.0883 61.167C65.3487 60.8162 65.6627 60.5051 65.932 60.1592C66.0465 60.0402 66.1134 59.8834 66.1202 59.7185C66.127 59.5535 66.0731 59.3917 65.9688 59.2637C65.8418 59.1564 65.682 59.0956 65.5158 59.0913C65.3496 59.0869 65.1869 59.1394 65.0545 59.2399C64.6703 59.4487 64.3077 59.6951 63.9721 59.9754C62.2937 61.4327 61.2072 63.4543 60.918 65.6583ZM80.8351 88.2011C78.9265 88.0471 77.127 87.2491 75.7316 85.9381C74.9079 85.2032 74.3595 84.2092 74.1772 83.1205C73.8591 81.0831 75.176 79.5525 77.2402 79.639C77.7313 79.6676 78.2171 79.755 78.6873 79.8994C80.5806 80.4559 82.5554 80.6835 84.5263 80.5702C85.4029 80.4708 86.2884 80.6497 87.0567 81.0811C87.5203 81.3262 87.8974 81.708 88.1367 82.1747C88.376 82.6414 88.466 83.1704 88.3944 83.69C88.3385 84.2638 88.1633 84.8196 87.8801 85.3218C87.5968 85.8239 87.2118 86.2613 86.7495 86.606C85.265 87.7553 83.4202 88.3394 81.5447 88.2538C81.3095 88.2213 81.0725 88.2037 80.8351 88.2011ZM76.6877 85.3766C78.0463 86.445 79.4407 87.2023 81.0577 87.2569C82.4521 87.3027 83.8822 87.1725 85.0679 86.2571C83.8057 84.0627 78.9725 83.3272 76.6896 85.3607L76.6877 85.3766ZM135.56 67.0755C135.739 67.6569 135.785 68.2721 135.693 68.8744C135.673 69.1404 135.589 69.3975 135.448 69.6241C135.307 69.8507 135.114 70.0401 134.884 70.1762C134.655 70.3124 134.396 70.3913 134.13 70.4064C133.863 70.4215 133.597 70.3722 133.354 70.2628C132.792 70.0241 132.276 69.6876 131.831 69.269C130.587 68.1688 129.34 67.0606 128.167 65.8779C126.412 64.1832 124.508 62.6501 122.478 61.2972C116.31 57.0381 109.565 53.6808 102.449 51.3267C99.89 50.4526 97.2957 49.6867 94.6726 49.0309L94.9738 47.8373C96.8939 48.3114 98.8041 48.8321 100.705 49.3996C107.871 51.5523 114.55 54.7456 120.956 58.5531C124.845 60.934 128.428 63.7817 131.626 67.0328C132.18 67.5824 132.725 68.1489 133.3 68.6607C133.557 68.8337 133.833 68.9718 134.124 69.0742C134.688 68.3695 134.431 67.7186 134.216 67.1004C133.354 64.5231 132.294 62.0161 131.047 59.6017C130.872 59.2747 130.713 58.9497 130.504 58.6316L131.641 58.1029C133.415 60.8559 134.533 63.9498 135.56 67.0755Z" fill="black"/>
<path d="M134.235 67.0928C134.451 67.711 134.707 68.3749 134.144 69.0666C133.853 68.9645 133.576 68.8255 133.32 68.6532C132.737 68.1403 132.217 67.5768 131.645 67.0242C128.451 63.7778 124.872 60.9338 120.988 58.5555C114.581 54.747 107.882 51.5517 100.737 49.402C98.84 48.8321 96.9285 48.3109 95.0047 47.8387C92.8391 47.3003 90.6667 46.79 88.4879 46.3081C85.5759 45.6521 82.6539 45.5895 79.7121 45.5925C76.9481 45.5846 74.1673 45.6094 71.4023 45.7505C64.92 46.0586 58.4966 47.1305 52.2655 48.9438C50.728 49.401 49.1706 49.8164 47.648 50.3243C43.3912 51.7836 39.3214 53.7398 35.5228 56.1523C34.9106 56.536 34.2944 56.9196 33.6613 57.2645C33.39 57.3649 33.1077 57.4334 32.8195 57.4662C32.7639 57.1691 32.6466 56.9435 32.7002 56.7656C32.8305 56.2863 33.0209 55.8255 33.2667 55.394C34.634 53.1715 36.1655 51.0543 37.8485 49.0601C40.2303 46.3225 43.2469 44.2106 46.6342 42.9091C49.9462 41.6352 53.3673 40.6658 56.8551 40.013C61.7472 39.0323 66.7029 38.4012 71.6846 38.1246C76.4519 37.8045 81.2391 37.9566 85.9764 38.5788C87.018 38.7279 88.0714 38.8193 89.117 38.9396C93.6311 39.5372 98.0808 40.5482 102.41 41.9599L103.258 42.2333C107.838 43.678 112.308 45.4517 116.632 47.5405C119.747 48.9936 122.697 50.7783 125.43 52.8636C127.461 54.4525 129.188 56.3957 130.527 58.5992C130.716 58.9153 130.895 59.2433 131.07 59.5702C132.317 61.9928 133.376 64.5082 134.235 67.0938V67.0928ZM131.159 64.4531C131.205 64.3582 131.229 64.2546 131.231 64.1495C131.232 64.0443 131.211 63.94 131.168 63.8439C131.06 63.6482 130.911 63.4786 130.73 63.3469C129.214 62.0529 127.765 60.6714 126.154 59.4877C121.748 56.2154 116.988 53.4471 111.965 51.2347C108.84 49.8101 105.642 48.5511 102.384 47.463C99.5804 46.5764 96.7191 45.9205 93.8706 45.2089C89.8277 44.1983 85.6932 43.5972 81.5298 43.415C79.2052 43.3156 76.8756 43.405 74.5469 43.3782C70.8873 43.3461 67.2315 43.6227 63.6184 44.2051C58.4115 45.0151 53.2633 46.0596 48.2731 47.8029C44.6861 48.9881 41.2222 50.5179 37.93 52.3707C37.585 52.5487 37.2558 52.7559 36.946 52.9899C36.874 53.0668 36.82 53.1588 36.7881 53.2592C36.7561 53.3596 36.7469 53.4659 36.7612 53.5703C36.7777 53.6383 36.8091 53.7018 36.853 53.7563C36.8969 53.8108 36.9523 53.8549 37.0152 53.8856C37.0781 53.9163 37.147 53.9327 37.217 53.9336C37.287 53.9346 37.3564 53.9202 37.4201 53.8913C37.8875 53.7223 38.3405 53.5159 38.7747 53.2741C42.9493 51.0748 47.34 49.313 51.8769 48.0166C56.1955 46.7899 60.5987 45.883 65.0506 45.3033C68.2382 44.8868 71.4485 44.6664 74.6632 44.6434C78.3534 44.5718 81.9771 44.7925 85.6037 45.0568C89.2482 45.6353 92.8301 46.2554 96.409 47.1539C100.019 48.0239 103.562 49.1511 107.011 50.5271C111.574 52.3925 116.066 54.431 120.259 57.0677C123.526 59.0677 126.619 61.3391 129.506 63.8578C129.834 64.152 130.196 64.4044 130.585 64.6121C130.684 64.6332 130.786 64.6294 130.883 64.6012C130.98 64.5729 131.068 64.521 131.14 64.4501L131.159 64.4531Z" fill="#32BAE2"/>
<path d="M131.153 63.8464C131.194 63.9427 131.215 64.0467 131.213 64.1515C131.211 64.2563 131.188 64.3596 131.144 64.4546C131.068 64.5254 130.976 64.5758 130.876 64.6008C130.776 64.6259 130.671 64.6248 130.571 64.5978C130.182 64.3912 129.82 64.1379 129.492 63.8434C126.605 61.3248 123.512 59.0537 120.244 57.0543C116.048 54.4126 111.561 52.3752 106.996 50.5127C103.547 49.1368 100.005 48.0096 96.3951 47.1395C92.8162 46.2411 89.2343 45.6219 85.5898 45.0435C81.9622 44.7781 78.3187 44.5565 74.6494 44.63C71.4347 44.6527 68.2244 44.8728 65.0367 45.289C60.5848 45.8686 56.1816 46.7755 51.863 48.0022C47.3262 49.2986 42.9355 51.0605 38.7609 53.2598C38.3263 53.5016 37.873 53.708 37.4053 53.8769C37.3416 53.9058 37.2723 53.9203 37.2024 53.9193C37.1324 53.9183 37.0636 53.9019 37.0008 53.8712C36.9379 53.8406 36.8826 53.7964 36.8388 53.7419C36.795 53.6874 36.7638 53.6239 36.7473 53.5559C36.733 53.4515 36.7421 53.3452 36.7741 53.2448C36.8061 53.1444 36.8601 53.0524 36.9322 52.9755C37.2413 52.7419 37.5712 52.5352 37.9161 52.3563C41.2083 50.5034 44.6722 48.9737 48.2593 47.7885C53.2494 46.0463 58.3967 45.0007 63.6045 44.1907C67.2174 43.6088 70.8728 43.3325 74.5321 43.3648C76.8617 43.3907 79.1913 43.3022 81.516 43.4016C85.6793 43.5835 89.8137 44.1848 93.8568 45.1955C96.7042 45.9071 99.5665 46.5631 102.369 47.4496C105.618 48.5428 108.808 49.8061 111.924 51.2343C116.948 53.4466 121.707 56.2148 126.114 59.4873C127.717 60.67 129.174 62.0515 130.69 63.3475C130.88 63.4767 131.038 63.6476 131.153 63.8464ZM131.642 58.0889L130.505 58.6177C129.166 56.4138 127.439 54.4703 125.408 52.8811C122.675 50.7959 119.725 49.0115 116.609 47.5589C112.285 45.47 107.816 43.6963 103.236 42.2517L103.618 41.067C109.075 42.7465 114.369 44.9184 119.433 47.556C122.907 49.3618 126.148 51.4489 128.853 54.2993C129.018 54.4246 129.197 54.5289 129.385 54.6104C129.426 54.2596 129.476 54.0071 129.484 53.7547L130.732 53.7915C130.705 54.025 130.717 54.2725 130.71 54.509C130.643 55.77 130.968 57.0208 131.642 58.0889Z" fill="black"/>
<path d="M130.727 53.7729L129.479 53.7362C129.538 50.0161 129.641 46.305 129.622 42.588C129.591 39.4229 129.198 36.2718 128.451 33.196C126.696 25.7817 122.845 19.739 116.759 15.1325C112.243 11.7096 107.106 9.52409 101.696 7.93689C99.5103 7.30603 97.3032 6.75244 95.0786 6.27713C92.5333 5.71858 89.989 5.14413 87.3483 5.19382C85.132 5.22861 82.9097 5.15804 80.6914 5.16898C76.0866 5.17036 71.503 5.79283 67.0646 7.01955C57.427 9.7179 50.3656 15.4853 46.092 24.5961C44.5425 27.9776 43.3726 31.5205 42.6035 35.1598C42.1861 37.0542 41.7588 38.9485 41.3493 40.8448C41.2231 41.4441 41.1207 42.0463 41.0074 42.6466C40.8931 43.2469 40.7788 43.7786 40.6218 44.5419C41.1048 44.2935 41.4089 44.1742 41.6743 43.9993C43.9376 42.5885 46.3757 41.4795 48.9265 40.7006C54.3331 38.9654 59.8968 38.0043 65.5171 37.3692C68.7627 36.9793 72.027 36.7643 75.2957 36.7252C77.5136 36.6528 79.7337 36.7112 81.9447 36.9001C84.8667 37.235 87.7966 37.5233 90.7136 37.9069C92.6378 38.1599 94.5471 38.5159 96.4333 38.9733C98.8513 39.5736 101.241 40.2942 103.619 41.0256L103.237 42.2083L102.39 41.936C98.0604 40.5243 93.6107 39.5133 89.0966 38.9157L85.9559 38.5549C81.2187 37.9324 76.4314 37.7799 71.6642 38.0997C66.6819 38.377 61.7255 39.0081 56.8337 39.988C53.3462 40.6414 49.9254 41.6111 46.6138 42.8852C43.2265 44.1866 40.2099 46.2986 37.828 49.0362C36.1451 51.0304 34.6136 53.1476 33.2463 55.3701C33.0005 55.8016 32.8101 56.2624 32.6798 56.7416C32.6261 56.9195 32.7424 57.1571 32.7991 57.4423C33.0873 57.4095 33.3695 57.3409 33.6409 57.2405C34.273 56.9036 34.8902 56.512 35.5024 56.1284C39.3009 53.7158 43.3708 51.7596 47.6275 50.3004C49.1501 49.7925 50.7075 49.3781 52.245 48.9199C58.4762 47.1062 64.8995 46.034 71.3819 45.7256C74.15 45.5915 76.9214 45.5388 79.6926 45.5676C82.6344 45.5656 85.5564 45.6272 88.4674 46.2852C90.649 46.7722 92.8206 47.2721 94.9842 47.8157L94.6841 49.0084C93.1136 48.6145 91.5335 48.2599 89.9453 47.9449C87.775 47.4789 85.5743 47.167 83.36 47.0117C80.6414 46.8551 77.9178 46.8043 75.1954 46.8596C67.651 46.9664 60.1521 48.048 52.8851 50.0778C49.154 51.1288 45.5237 52.5094 42.037 54.2033C40.099 55.1594 38.2504 56.2884 36.3571 57.3479C35.8721 57.6192 35.4109 57.9303 34.922 58.1927C34.584 58.3828 34.229 58.5409 33.8615 58.6647C32.2296 59.1567 31.0588 58.1261 31.3918 56.4464C31.5011 55.9048 31.7098 55.388 32.005 54.9209C33.8605 52.0168 35.7687 49.1515 38.2633 46.7334C38.7523 46.2862 39.0863 45.6958 39.2174 45.0468C39.8851 41.6161 40.5974 38.1943 41.3543 34.7822C42.535 29.3785 44.3786 24.2313 47.4148 19.5601C50.5385 14.7299 54.9161 10.8395 60.0797 8.30462C64.7488 5.97699 69.743 4.80721 74.9002 4.21785C77.7124 3.93093 80.5382 3.79788 83.3649 3.81931C83.5418 3.80539 83.7168 3.77458 83.8867 3.72787C83.9772 3.53208 84.0537 3.33033 84.1153 3.1236C84.483 1.63976 85.5902 0.976853 86.9379 0.605148C87.0472 0.584276 87.1575 0.57235 87.2688 0.569368C89.5352 0.3139 91.8299 0.577293 93.9794 1.33961C95.5696 1.93196 96.5833 3.00136 96.5128 4.83007C96.5297 4.97617 96.5684 5.11829 96.6271 5.25246C97.5285 5.49496 98.4776 5.77623 99.4417 6.00482C104.744 7.21864 109.823 9.25558 114.495 12.0416C122.422 16.8628 127.524 23.7662 129.727 32.8024C130.73 37.1898 131.147 41.6908 130.967 46.1878C130.891 48.7072 130.8 51.2366 130.726 53.7729H130.727ZM95.014 4.73963C95.1442 3.60463 94.5787 3.00831 93.6683 2.6704C91.6365 1.90959 89.4491 1.65844 87.2977 1.93891C86.9675 1.97499 86.648 2.07742 86.3585 2.24006C86.0704 2.36784 85.8373 2.59412 85.7011 2.87828C85.5648 3.16244 85.5343 3.48587 85.615 3.79048C87.2112 3.86006 88.7557 3.91472 90.2961 3.99721C91.8366 4.08069 93.3682 4.8579 95.014 4.73963Z" fill="black"/>
<path d="M129.476 53.74C129.471 53.9924 129.417 54.2439 129.377 54.5947C129.188 54.5133 129.008 54.4092 128.844 54.2846C126.14 51.4332 122.866 49.3431 119.424 47.5412C114.359 44.9037 109.066 42.7318 103.608 41.0523C101.238 40.3138 98.8419 39.5923 96.4228 39C94.5367 38.5425 92.6274 38.1865 90.7031 37.9335C87.7871 37.533 84.8562 37.2627 81.9333 36.9268C79.7223 36.7379 77.5021 36.6795 75.2843 36.7518C72.0159 36.7913 68.7519 37.0066 65.5067 37.3969C59.8863 38.0319 54.3247 38.9761 48.9151 40.7273C46.3645 41.5065 43.9268 42.6158 41.6638 44.0269C41.3985 44.2009 41.0943 44.3211 40.6113 44.5686C40.7684 43.8053 40.8827 43.2368 40.9969 42.6733C41.1102 42.1098 41.2126 41.4707 41.3388 40.8714C41.7523 38.9761 42.1836 37.0828 42.5931 35.1865C43.3622 31.5472 44.5321 28.0043 46.0816 24.6227C50.3552 15.5119 57.4156 9.74454 67.0531 7.0462C71.4922 5.8193 76.0765 5.19683 80.682 5.19562C82.9003 5.18469 85.1216 5.25525 87.3389 5.21947C89.9796 5.17078 92.5229 5.74622 95.0692 6.30378C97.2937 6.77911 99.5008 7.3327 101.686 7.96354C107.098 9.53881 112.221 11.7353 116.749 15.1591C122.836 19.7657 126.687 25.8084 128.441 33.2226C129.188 36.2984 129.581 39.4496 129.613 42.6146C129.639 46.3078 129.534 50.0279 129.477 53.74H129.476ZM97.7526 22.5028C98.6123 20.2239 97.8957 18.3375 95.8563 17.4321C94.9375 16.9942 93.9166 16.8155 92.9037 16.9153C91.8908 17.0152 90.9244 17.3897 90.1088 17.9986C89.6635 18.3127 89.2123 18.6774 88.7611 19.0431C88.4003 18.6217 88.0912 18.2182 87.7543 17.8356C87.1402 17.0885 86.3457 16.5102 85.4459 16.1555C84.5462 15.8007 83.5709 15.6812 82.6121 15.8081C80.4077 16.0466 79.1494 17.4569 79.1385 19.6564C79.1605 21.2272 79.7953 22.7272 80.9076 23.8366C82.6827 25.7243 84.8668 27.1802 87.2922 28.0923C87.5496 28.1917 87.8279 28.2245 88.1002 28.1847C90.7152 27.8393 93.2139 26.8896 95.3981 25.4108C96.4665 24.7095 97.2898 23.6927 97.7536 22.5018L97.7526 22.5028Z" fill="#64CCF5"/>
</g>
<mask id="mask1_238_509" style="mask-type:alpha" maskUnits="userSpaceOnUse" x="24" y="-10" width="136" height="125">
<path d="M61.5086 -6.53154C69.9634 -14.559 116.9 -1.24418 119.759 -0.207577C129.139 12.5894 149.775 42.1907 157.275 58.2188C166.651 78.2551 146.809 96.0204 145.625 99.2882C144.677 101.902 128.881 108.933 121.101 112.121C102.207 112.822 63.6752 114.231 60.7055 114.264C57.7358 114.297 44.7629 108.947 38.6467 106.268L31.2831 93.4314C29.1503 76.7911 24.8399 43.1239 24.66 41.5795C24.4344 39.6504 53.0528 1.49591 61.5086 -6.53154Z" fill="#C4C4C4"/>
</mask>
<g mask="url(#mask1_238_509)">
<path d="M71.3249 24.2883C73.4651 23.8411 75.6397 23.5778 77.8248 23.5012C79.3553 23.4316 80.8829 23.3452 82.4105 23.2955C84.2655 23.2293 86.123 23.288 87.9702 23.4714C91.1535 23.7884 94.1798 24.6918 97.226 25.5615C98.4346 25.9044 99.6212 26.3198 100.818 26.7064C104.604 27.9229 107.992 29.9236 111.235 32.1776C113.455 33.6841 115.524 35.4029 117.412 37.31C121.109 41.1513 123.917 45.7568 125.64 50.8017C127.102 55.1062 127.921 59.6034 128.068 64.1473C128.195 67.3177 128.164 70.4931 127.973 73.6606C127.742 77.7046 127.612 81.7526 127.398 85.7937C127.273 88.3082 127.103 90.8206 126.941 93.3341C126.738 96.7769 126.527 100.218 126.335 103.66C126.221 105.68 126.126 107.701 126.049 109.723C125.736 118.569 126.367 127.322 128.482 135.944C129.188 138.811 129.889 141.682 130.469 144.575C131.206 148.139 130.849 151.843 129.445 155.2C127.647 159.568 123.698 161.327 119.771 161.073C117.797 160.947 115.879 160.371 114.162 159.389C112.713 158.597 111.491 157.446 110.615 156.045C110.184 155.349 109.788 154.629 109.396 153.908C108.755 152.631 107.819 151.523 106.667 150.678C106.531 150.57 106.408 150.447 106.299 150.312C106.401 150.169 106.468 149.988 106.592 149.938C107.335 149.575 108.177 149.467 108.987 149.632C109.536 149.706 110.04 149.976 110.406 150.392C110.646 150.69 110.908 150.97 111.189 151.23C111.225 151.272 111.271 151.305 111.321 151.327C111.372 151.349 111.428 151.36 111.483 151.358C111.539 151.356 111.593 151.342 111.642 151.317C111.692 151.291 111.735 151.255 111.768 151.211C111.831 151.129 111.876 151.034 111.901 150.934C111.926 150.833 111.93 150.729 111.912 150.626C111.381 149.629 110.653 148.844 109.481 148.608C107.228 148.133 105.389 148.874 103.87 150.52C103.313 151.123 102.839 151.801 102.281 152.384C101.704 153.043 101.074 153.655 100.397 154.212C99.6088 154.855 98.6708 155.289 97.6701 155.473C96.6694 155.657 95.6385 155.585 94.6728 155.265C93.2454 154.827 92.0391 153.86 91.3006 152.563C90.9585 151.94 90.6597 151.295 90.4061 150.631C90.102 149.93 89.8496 149.201 89.5116 148.519C89.2695 148.029 88.9623 147.574 88.5983 147.167C88.0935 146.579 87.4055 146.179 86.6454 146.031C85.8853 145.883 85.0974 145.996 84.4091 146.351C83.7838 146.685 83.198 147.088 82.6629 147.553C82.1203 148.007 81.6671 148.568 81.1403 149.051C80.4452 149.741 79.7098 150.389 78.9379 150.991C77.3196 152.152 75.3302 152.675 73.3502 152.462C71.3702 152.248 69.5384 151.312 68.2052 149.832C67.5428 149.034 66.933 148.193 66.3794 147.315C65.9759 146.729 65.6579 146.083 65.2365 145.511C64.8501 144.982 64.4098 144.494 63.9226 144.055C63.3035 143.501 62.5075 143.186 61.6771 143.165C60.8466 143.145 60.0361 143.421 59.3906 143.944C58.9609 144.28 58.572 144.664 58.2317 145.091C57.7537 145.691 57.3512 146.344 56.9099 146.985C56.3732 147.812 55.7055 148.546 54.9331 149.159C53.6937 150.09 52.1458 150.514 50.6049 150.344C49.0639 150.173 47.6458 149.422 46.6393 148.243C46.0311 147.469 45.4911 146.643 45.0252 145.775C44.6108 145.069 44.3067 144.298 43.8962 143.6C42.8149 141.72 41.2456 140.599 39.0064 140.502C37.7859 140.451 36.9024 141.017 36.1282 141.808C36.0892 141.846 36.0584 141.892 36.0379 141.942C36.0174 141.993 36.0075 142.047 36.0089 142.101C35.9966 142.26 36.0375 142.419 36.1252 142.552C36.1808 142.604 36.2481 142.641 36.3214 142.661C36.3946 142.681 36.4716 142.682 36.5456 142.666C36.8447 142.534 37.127 142.365 37.3844 142.165C37.7713 141.858 38.2344 141.663 38.7239 141.601C39.2133 141.538 39.7106 141.61 40.1623 141.809C40.6095 142.001 41.0408 142.229 41.4503 142.493C41.4887 142.531 41.5179 142.577 41.5358 142.628C41.5537 142.679 41.5598 142.733 41.5536 142.787C41.5473 142.84 41.529 142.892 41.4999 142.937C41.4708 142.983 41.4318 143.021 41.3857 143.049C41.1909 143.146 40.9882 143.229 40.7864 143.317C39.8342 143.743 38.9795 144.361 38.2749 145.13C37.6786 145.769 37.0922 146.422 36.4979 147.066C34.9234 148.768 32.8217 149.89 30.5317 150.251C28.373 150.681 26.1388 150.519 24.0646 149.783C20.761 148.585 18.7445 146.23 17.9951 142.818C17.5369 140.756 17.6512 138.687 17.9186 136.611C18.1537 134.817 18.6758 133.073 19.465 131.446C20.6704 128.931 21.8979 126.426 23.1473 123.932C25.6909 118.901 27.7486 113.638 29.2924 108.216C30.7095 103.101 31.8518 97.9129 32.7142 92.6752C33.4427 88.3608 34.1553 84.0405 34.9007 79.7241C35.4971 76.2744 36.1262 72.8287 36.7503 69.386C37.287 66.4242 37.8078 63.4566 38.4001 60.5058C39.2114 56.143 40.46 51.873 42.1271 47.7605C44.7275 41.3941 48.9811 35.8377 54.4481 31.6658C56.205 30.3543 58.0868 29.2191 60.0664 28.2767C63.6483 26.5067 67.4275 25.1679 71.3249 24.2883Z" fill="white"/>
<path d="M129.062 74.3175C128.925 76.83 128.844 79.3444 128.731 81.8609C128.649 83.72 128.554 85.5786 128.447 87.4365C128.264 90.3813 128.048 93.3301 127.873 96.2809C127.715 99.012 127.585 101.742 127.451 104.475C127.363 106.278 127.291 108.082 127.214 109.886C126.777 119.297 127.764 128.72 130.141 137.836C130.744 140.106 131.22 142.411 131.662 144.72C132.335 148.294 131.97 151.986 130.611 155.359C128.155 161.684 121.955 163.059 117.333 161.836C115.626 161.422 114.009 160.698 112.563 159.7C111.01 158.563 109.752 157.071 108.893 155.348C108.524 154.616 108.117 153.903 107.674 153.211C107.165 152.359 106.41 151.679 105.509 151.261C105.364 151.184 105.197 151.16 105.035 151.19C104.873 151.22 104.727 151.304 104.619 151.428C104.246 151.824 103.909 152.259 103.536 152.659C102.863 153.399 102.221 154.144 101.496 154.789C100.654 155.558 99.6425 156.118 98.5437 156.424C97.445 156.73 96.2897 156.773 95.1712 156.55C94.0525 156.328 93.0016 155.846 92.1035 155.143C91.2054 154.44 90.4852 153.536 90.0011 152.503C89.689 151.866 89.4644 151.186 89.1792 150.535C88.9004 149.822 88.5695 149.13 88.1893 148.466C87.2729 147.011 85.8159 146.692 84.3728 147.647C83.7113 148.132 83.0889 148.668 82.5113 149.25C81.7888 149.916 81.1239 150.645 80.3745 151.287C77.9575 153.354 75.1667 153.892 72.0877 153.24C69.8057 152.789 67.7934 151.457 66.4873 149.532C65.8293 148.594 65.2578 147.591 64.6138 146.642C64.2659 146.086 63.859 145.569 63.4003 145.1C63.1669 144.844 62.8832 144.64 62.567 144.5C62.2508 144.36 61.909 144.287 61.5632 144.286C61.2174 144.285 60.8751 144.355 60.5579 144.493C60.2406 144.63 59.9554 144.832 59.72 145.086C59.1635 145.686 58.651 146.326 58.1865 147C57.7571 147.568 57.3844 148.177 56.9332 148.726C56.2307 149.607 55.3332 150.313 54.3114 150.788C53.2893 151.262 52.171 151.493 51.0448 151.461C49.9186 151.429 48.8151 151.136 47.8215 150.605C46.8275 150.073 45.9708 149.318 45.3189 148.398C44.7892 147.638 44.33 146.824 43.8659 146.022C43.5886 145.549 43.3769 145.042 43.1125 144.565C42.7508 143.906 42.5063 143.816 41.7688 144.043C40.8799 144.331 40.0769 144.836 39.4323 145.513C38.8578 146.097 38.3241 146.724 37.7785 147.336C34.4421 151.097 30.1665 152.238 25.4218 151.304C20.2517 150.301 17.1031 146.725 16.6489 141.239C16.5396 139.885 16.627 138.512 16.6241 137.146C16.8765 135.182 17.4192 133.267 18.2381 131.465C19.4644 128.839 20.7294 126.232 22.0327 123.644C24.8351 118.133 27.0421 112.338 28.616 106.359C29.7517 102.021 30.6935 97.6339 31.4386 93.2118C32.2864 88.1908 33.1928 83.1847 34.0714 78.1717C34.8138 73.913 35.5125 69.6483 36.3105 65.3995C36.9456 62.0154 37.5926 58.6243 38.4305 55.284C40.0534 48.8059 42.6236 42.7483 46.8525 37.4818C50.3472 33.0289 54.8361 29.456 59.9596 27.0492C63.6108 25.2939 67.4546 23.971 71.4129 23.1076C73.5062 22.7028 75.626 22.4487 77.7557 22.3473C79.4989 22.2409 81.2481 22.2211 82.9964 22.1306C86.1151 21.9706 89.2398 22.2698 92.2711 23.0201C95.4554 23.7953 98.6219 24.7157 101.705 25.8019C105.449 27.1148 108.831 29.1195 112.061 31.3885C114.458 33.0269 116.677 34.9123 118.68 37.0137C122.291 40.9338 125.037 45.5699 126.739 50.6207C128.223 55.0913 129.045 59.7548 129.179 64.4633C129.34 67.7629 129.238 71.0397 129.062 74.3175ZM119.768 161.077C123.703 161.332 127.653 159.572 129.444 155.204C130.855 151.85 131.22 148.147 130.491 144.582C129.912 141.689 129.21 138.817 128.504 135.95C126.389 127.329 125.758 118.575 126.07 109.73C126.139 107.708 126.234 105.688 126.358 103.667C126.549 100.224 126.739 96.7798 126.963 93.341C127.113 90.8266 127.283 88.3121 127.42 85.8006C127.618 81.7565 127.748 77.7095 127.996 73.6675C128.185 70.5 128.217 67.3246 128.089 64.1542C127.942 59.6104 127.124 55.1133 125.662 50.8086C123.939 45.7633 121.13 41.1575 117.434 37.3159C115.545 35.4083 113.474 33.6895 111.252 32.1836C108.01 29.9295 104.623 27.9288 100.836 26.7123C99.6525 26.3267 98.4728 25.9133 97.2444 25.5674C94.1982 24.6978 91.1719 23.7943 87.9885 23.4773C86.1414 23.2939 84.2839 23.2351 82.4289 23.3014C80.9013 23.3511 79.3737 23.4375 77.8432 23.5071C75.658 23.5836 73.4835 23.8469 71.3433 24.2943C67.4442 25.1735 63.6633 26.5123 60.0798 28.2826C58.0952 29.2236 56.2083 30.3581 54.4466 31.6697C48.9794 35.8413 44.7255 41.3973 42.1246 47.7634C40.459 51.8721 39.211 56.1381 38.3996 60.4968C37.8073 63.4486 37.2865 66.4152 36.7498 69.377C36.1257 72.8197 35.4976 76.2654 34.9002 79.7161C34.1548 84.0325 33.4412 88.3528 32.7137 92.6662C31.8512 97.9042 30.7089 103.092 29.2919 108.208C27.7554 113.63 25.7054 118.893 23.1697 123.926C21.9184 126.419 20.6913 128.924 19.4884 131.44C18.7004 133.075 18.1815 134.826 17.9519 136.627C17.6895 138.7 17.5702 140.772 18.0284 142.834C18.7907 146.247 20.7963 148.585 24.0979 149.799C26.1721 150.535 28.4063 150.697 30.565 150.267C32.855 149.906 34.9567 148.784 36.5312 147.082C37.1245 146.438 37.7109 145.786 38.3082 145.146C39.0089 144.382 39.8576 143.768 40.8028 143.342C41.0046 143.255 41.2063 143.172 41.4021 143.076C41.4478 143.047 41.4865 143.009 41.5152 142.963C41.544 142.918 41.5621 142.866 41.5682 142.813C41.5743 142.759 41.5683 142.705 41.5505 142.654C41.5328 142.603 41.5038 142.557 41.4657 142.518C41.0511 142.247 40.6142 142.011 40.1598 141.813C39.7068 141.61 39.2069 141.536 38.7145 141.597C38.2221 141.659 37.7561 141.855 37.367 142.163C37.1086 142.363 36.8273 142.532 36.5272 142.664C36.4531 142.68 36.376 142.679 36.3027 142.659C36.2294 142.639 36.1621 142.601 36.1068 142.549C36.0194 142.416 35.9789 142.258 35.9915 142.099C35.9908 142.045 36.001 141.991 36.0215 141.94C36.042 141.89 36.0723 141.844 36.1108 141.806C36.9019 141.005 37.7854 140.439 38.989 140.5C41.2282 140.597 42.7975 141.718 43.8788 143.598C44.2863 144.311 44.5914 145.083 45.0069 145.772C45.474 146.638 46.0146 147.461 46.6229 148.233C47.6302 149.411 49.0482 150.161 50.5887 150.331C52.1293 150.501 53.6768 150.078 54.9167 149.149C55.6886 148.535 56.3558 147.801 56.8925 146.974C57.3328 146.346 57.7393 145.693 58.2143 145.081C58.5548 144.654 58.9437 144.269 59.3732 143.933C60.0185 143.41 60.8291 143.133 61.6597 143.154C62.4902 143.174 63.2863 143.49 63.9052 144.044C64.3922 144.483 64.8335 144.971 65.2201 145.5C65.6405 146.073 65.9595 146.719 66.363 147.305C66.9161 148.183 67.526 149.024 68.1888 149.822C69.5213 151.307 71.3548 152.247 73.3378 152.464C75.3209 152.68 77.3141 152.157 78.9354 150.995C79.7132 150.393 80.4543 149.744 81.1547 149.053C81.6815 148.569 82.1347 148.008 82.6773 147.554C83.2124 147.089 83.7982 146.686 84.4235 146.352C85.112 145.997 85.8998 145.885 86.6599 146.033C87.4199 146.182 88.1079 146.582 88.6127 147.169C88.9764 147.579 89.2835 148.036 89.5241 148.529C89.855 149.209 90.1154 149.939 90.4185 150.64C90.673 151.304 90.9721 151.949 91.314 152.572C92.0528 153.87 93.259 154.836 94.6862 155.275C95.6519 155.595 96.6828 155.667 97.6835 155.483C98.6842 155.299 99.6223 154.865 100.411 154.222C101.087 153.664 101.717 153.053 102.294 152.394C102.855 151.794 103.329 151.117 103.883 150.53C105.402 148.884 107.243 148.142 109.495 148.618C110.666 148.862 111.393 149.653 111.927 150.635C111.944 150.738 111.941 150.843 111.916 150.943C111.891 151.044 111.845 151.139 111.782 151.221C111.73 151.286 111.658 151.332 111.578 151.353C111.497 151.373 111.412 151.367 111.335 151.335C111.285 151.314 111.239 151.281 111.202 151.24C110.921 150.979 110.66 150.699 110.419 150.401C110.053 149.986 109.549 149.716 109.001 149.642C108.191 149.477 107.349 149.584 106.606 149.947C106.479 150.01 106.414 150.191 106.312 150.322C106.422 150.456 106.545 150.58 106.68 150.688C107.833 151.533 108.769 152.64 109.409 153.918C109.802 154.638 110.197 155.358 110.629 156.055C111.505 157.455 112.726 158.607 114.176 159.399C115.888 160.376 117.801 160.95 119.768 161.077Z" fill="black"/>
<path d="M106.118 69.7679C105.915 72.2654 104.771 74.5925 102.917 76.2777C101.933 77.2385 100.715 77.9235 99.3828 78.2637C98.0509 78.6039 96.6529 78.5874 95.3294 78.2158C94.3425 77.9645 93.4233 77.4981 92.6378 76.85C91.8522 76.2019 91.2197 75.3881 90.7855 74.4669C87.9251 68.9142 91.2864 62.5505 96.0957 60.9305C97.8454 60.3254 99.7575 60.3916 101.461 61.1162C103.165 61.8408 104.539 63.1722 105.317 64.8522C106.069 66.374 106.348 68.0861 106.118 69.7679ZM90.8391 69.5433C90.7116 70.7284 90.8746 71.9268 91.3142 73.0347C91.7783 74.4531 92.7269 75.6628 93.9937 76.4517C94.7152 76.8323 95.4745 77.1364 96.2587 77.3581C96.4634 77.4306 96.8371 77.5588 96.9136 77.1752C96.9266 77.0659 96.6801 76.8571 96.5121 76.7568C96.1851 76.5679 95.8065 76.4546 95.4964 76.231C95.0286 75.9443 94.6299 75.5577 94.3289 75.099C94.0279 74.6403 93.832 74.1207 93.7551 73.5774C93.7015 73.2798 93.7331 72.9732 93.8463 72.6928C93.9596 72.4125 94.1499 72.1699 94.3952 71.9932C94.6556 71.7944 94.9667 71.6493 95.2112 71.4446C95.349 71.3139 95.4543 71.1529 95.5189 70.9743C95.5834 70.7957 95.6053 70.6045 95.5828 70.4159C95.5603 70.2273 95.494 70.0466 95.3893 69.8882C95.2846 69.7298 95.1443 69.5981 94.9796 69.5035C94.724 69.3903 94.4622 69.2917 94.1954 69.2084C93.2055 68.8168 92.9531 68.3049 93.291 67.2922C93.4103 66.9284 93.5762 66.5816 93.7859 66.2606C94.1805 65.6722 94.6109 65.1285 95.0462 64.5442C95.2777 64.244 95.553 63.9727 95.7926 63.6725C95.9131 63.5604 95.9936 63.4119 96.022 63.2497C96.0503 63.0875 96.0249 62.9205 95.9496 62.7741C95.7965 62.5028 95.3195 62.4481 94.906 62.6956C94.4835 62.9453 94.0861 63.2352 93.7194 63.5612C92.1113 65.0918 91.1691 66.9543 90.856 69.5443L90.8391 69.5433ZM67.0062 75.0374C63.9541 74.7611 61.9842 73.311 60.7757 70.9059C58.1092 65.6285 61.1335 59.2141 66.1237 57.5046C67.7642 56.926 69.5557 56.9413 71.1861 57.5479C72.8164 58.1545 74.1823 59.3139 75.0456 60.8241C77.8145 65.6424 75.5724 72.0488 70.8436 74.291C69.6642 74.9065 68.3313 75.1658 67.0072 75.0374H67.0062ZM60.9238 65.6583C60.7616 67.0666 60.9493 68.4932 61.4704 69.8116C62.0293 71.3172 63.1316 72.5589 64.5603 73.2922C65.2372 73.6281 65.9319 73.9898 66.7329 73.9262C66.7814 73.9203 66.8277 73.9029 66.8679 73.8754C66.9082 73.8479 66.9413 73.8111 66.9645 73.7682C66.9739 73.7175 66.9709 73.6653 66.9559 73.616C66.9408 73.5667 66.9141 73.5218 66.878 73.485C66.5431 73.3031 66.1823 73.1709 65.8554 72.9831C64.9776 72.5128 64.3049 71.7343 63.967 70.7976C63.5953 69.757 63.8289 69.0434 64.7303 68.3904C64.9609 68.2493 65.1775 68.0883 65.3793 67.9084C65.5012 67.7785 65.5916 67.6222 65.6434 67.4518C65.6953 67.2814 65.7073 67.1013 65.6785 66.9255C65.6497 66.7497 65.5808 66.5829 65.4772 66.4379C65.3737 66.293 65.2381 66.1738 65.0811 66.0896C64.7442 65.9167 64.3606 65.8362 64.0097 65.6891C63.7206 65.5909 63.4811 65.3839 63.342 65.1121C63.2029 64.8403 63.175 64.525 63.2643 64.2331C63.3687 63.8087 63.5367 63.4032 63.7623 63.0305C64.1688 62.3815 64.6349 61.7762 65.094 61.166C65.3544 60.8152 65.6685 60.5041 65.9378 60.1582C66.0525 60.0393 66.1196 59.8825 66.1263 59.7175C66.1331 59.5524 66.0791 59.3907 65.9746 59.2628C65.8476 59.1558 65.6879 59.0953 65.5219 59.0912C65.356 59.087 65.1935 59.1395 65.0613 59.2399C64.6766 59.4486 64.3139 59.6941 63.9779 59.9744C62.2996 61.432 61.2134 63.4541 60.9248 65.6583H60.9238ZM80.8408 88.2001C78.9323 88.0461 77.1328 87.2481 75.7374 85.9371C74.914 85.2021 74.366 84.2081 74.1839 83.1195C73.8659 81.0821 75.1818 79.5525 77.246 79.638C77.7374 79.6665 78.2236 79.754 78.6941 79.8984C80.5864 80.4549 82.5622 80.6825 84.5321 80.5692C85.4087 80.4698 86.2942 80.6487 87.0634 81.0811C87.5268 81.3263 87.9035 81.708 88.1426 82.1744C88.3818 82.6409 88.4717 83.1697 88.4002 83.689C88.3444 84.2627 88.1694 84.8185 87.8863 85.3206C87.6032 85.8228 87.2184 86.2603 86.7563 86.605C85.2719 87.7547 83.4271 88.3391 81.5515 88.2538C81.316 88.2209 81.0786 88.203 80.8408 88.2001ZM76.6935 85.3756C78.0521 86.444 79.4465 87.2013 81.0645 87.257C82.4579 87.3017 83.888 87.1715 85.0737 86.2561C83.8115 84.0617 78.9783 83.3272 76.6954 85.3597L76.6935 85.3756ZM135.567 67.0745C135.745 67.6569 135.791 68.2712 135.699 68.8734C135.67 69.2755 135.495 69.6532 135.207 69.9354C134.92 70.2176 134.538 70.385 134.136 70.406C133.869 70.4209 133.603 70.3714 133.36 70.2619C132.797 70.0231 132.282 69.6866 131.837 69.268C130.593 68.1688 129.345 67.0596 128.173 65.8779C126.418 64.1831 124.514 62.6496 122.485 61.2962C116.316 57.0373 109.571 53.68 102.454 51.3257C99.8961 50.4517 97.3022 49.6857 94.6794 49.0299L94.9796 47.8373C96.9027 48.3122 98.8141 48.8331 100.712 49.3996C107.878 51.5514 114.556 54.7446 120.962 58.5531C124.851 60.9336 128.434 63.7806 131.632 67.0308C132.187 67.5824 132.732 68.1479 133.306 68.6607C133.562 68.8327 133.839 68.9718 134.13 69.0732C134.693 68.3695 134.437 67.7176 134.222 67.1004C133.36 64.5234 132.3 62.0165 131.054 59.6017C130.878 59.2737 130.719 58.9497 130.51 58.6307L131.647 58.1029C133.421 60.8559 134.538 63.9498 135.567 67.0745Z" fill="black"/>
<path d="M134.242 67.0928C134.457 67.711 134.712 68.3749 134.15 69.0666C133.859 68.9645 133.582 68.8256 133.326 68.6532C132.743 68.1403 132.223 67.5768 131.652 67.0252C128.458 63.7786 124.878 60.9343 120.994 58.5555C114.587 54.747 107.889 51.5517 100.743 49.402C98.8459 48.8325 96.9344 48.3115 95.0105 47.8396C92.845 47.3013 90.6725 46.7911 88.4937 46.3091C85.5827 45.6522 82.6597 45.5905 79.7189 45.5925C76.954 45.5856 74.1731 45.6094 71.4082 45.7505C64.9258 46.059 58.5025 47.1311 52.2713 48.9448C50.7338 49.402 49.1764 49.8164 47.6538 50.3243C43.3971 51.7836 39.3272 53.7397 35.5287 56.1523C34.9165 56.537 34.3003 56.9196 33.6672 57.2645C33.3958 57.3658 33.1136 57.4334 32.8264 57.4662C32.7697 57.1701 32.6524 56.9435 32.7061 56.7656C32.8364 56.2863 33.0267 55.8255 33.2726 55.394C34.6399 53.1715 36.1714 51.0543 37.8543 49.0601C40.2363 46.3229 43.2529 44.2112 46.6401 42.9101C49.952 41.6359 53.3731 40.6662 56.861 40.013C61.7531 39.0323 66.7087 38.4012 71.6905 38.1246C76.4577 37.8045 81.2449 37.9566 85.9822 38.5788C87.0248 38.7279 88.0773 38.8203 89.1228 38.9396C93.637 39.5372 98.0866 40.5482 102.416 41.9599L103.265 42.2333C107.844 43.678 112.314 45.4517 116.638 47.5405C119.753 48.9936 122.703 50.7783 125.436 52.8636C127.467 54.4525 129.194 56.3957 130.533 58.5992C130.722 58.9163 130.901 59.2433 131.076 59.5702C132.323 61.993 133.382 64.5083 134.242 67.0938V67.0928ZM131.166 64.4531C131.211 64.3583 131.235 64.2548 131.237 64.1498C131.238 64.0449 131.217 63.9408 131.174 63.8448C131.067 63.6492 130.917 63.4796 130.737 63.3479C129.22 62.0529 127.771 60.6714 126.16 59.4887C121.753 56.2164 116.994 53.4482 111.971 51.2357C108.846 49.8107 105.648 48.5514 102.39 47.463C99.5872 46.5764 96.7249 45.9205 93.8765 45.2089C89.8335 44.1986 85.699 43.5979 81.5357 43.416C79.211 43.3166 76.8814 43.405 74.5528 43.3782C70.8931 43.3464 67.2373 43.6234 63.6242 44.2061C58.4174 45.0151 53.2692 46.0606 48.279 47.8029C44.6919 48.9881 41.228 50.5179 37.9358 52.3707C37.5909 52.5496 37.262 52.7563 36.9519 52.9899C36.8797 53.0667 36.8257 53.1587 36.7937 53.2591C36.7617 53.3596 36.7526 53.4659 36.767 53.5703C36.7831 53.6386 36.8142 53.7024 36.858 53.7572C36.9018 53.812 36.9572 53.8564 37.0203 53.8871C37.0834 53.9179 37.1525 53.9342 37.2227 53.9349C37.2928 53.9356 37.3623 53.9207 37.426 53.8913C37.8936 53.7221 38.3469 53.5157 38.7816 53.2741C42.9558 51.0749 47.3462 49.313 51.8827 48.0166C56.2017 46.7898 60.6052 45.8829 65.0574 45.3033C68.2448 44.8871 71.4547 44.667 74.6691 44.6444C78.3593 44.5728 81.9839 44.7925 85.6095 45.0578C89.254 45.6353 92.8359 46.2554 96.4148 47.1539C100.025 48.0239 103.568 49.1511 107.016 50.5271C111.58 52.3935 116.071 54.431 120.265 57.0687C123.532 59.0681 126.625 61.3392 129.512 63.8578C129.84 64.152 130.202 64.4054 130.591 64.6121C130.689 64.6333 130.792 64.6297 130.888 64.6016C130.985 64.5735 131.074 64.5218 131.145 64.4511L131.166 64.4531Z" fill="#32BAE2"/>
<path d="M131.158 63.8515C131.201 63.9478 131.222 64.052 131.22 64.1571C131.219 64.2622 131.194 64.3658 131.149 64.4608C131.074 64.5319 130.982 64.5824 130.882 64.6073C130.782 64.6322 130.676 64.6307 130.577 64.6029C130.188 64.3964 129.826 64.1434 129.498 63.8495C126.611 61.3308 123.518 59.0595 120.251 57.0594C116.054 54.4177 111.566 52.3803 107.002 50.5188C103.554 49.1426 100.011 48.015 96.4009 47.1446C92.823 46.2472 89.2401 45.627 85.5956 45.0486C81.968 44.7832 78.3244 44.5616 74.6551 44.6351C71.4404 44.6578 68.2301 44.8779 65.0424 45.2941C60.5905 45.8738 56.1874 46.7806 51.8687 48.0073C47.3319 49.3037 42.9412 51.0656 38.7666 53.2649C38.3321 53.507 37.8788 53.7138 37.411 53.883C37.3472 53.9119 37.2779 53.9263 37.2079 53.9253C37.1379 53.9242 37.0691 53.9077 37.0062 53.877C36.9433 53.8462 36.888 53.8019 36.8443 53.7473C36.8005 53.6927 36.7694 53.6291 36.7531 53.561C36.7389 53.4568 36.7481 53.3507 36.7801 53.2504C36.812 53.1502 36.866 53.0584 36.9379 52.9816C37.248 52.7471 37.577 52.5403 37.9218 52.3624C41.214 50.5092 44.6779 48.9791 48.265 47.7936C53.2552 46.0514 58.4034 45.0068 63.6103 44.1968C67.2231 43.6145 70.8785 43.3379 74.5378 43.3699C76.8674 43.3958 79.1971 43.3073 81.5217 43.4067C85.685 43.5886 89.8205 44.1899 93.8625 45.2006C96.71 45.9122 99.5723 46.5682 102.375 47.4547C105.624 48.5482 108.814 49.8118 111.931 51.2404C116.954 53.4522 121.713 56.2202 126.119 59.4924C127.723 60.6751 129.18 62.0576 130.696 63.3526C130.886 63.4818 131.044 63.6527 131.158 63.8515ZM131.647 58.095L130.511 58.6218C129.171 56.4188 127.444 54.4761 125.414 52.8872C122.681 50.8017 119.731 49.017 116.615 47.5641C112.291 45.4752 107.821 43.7015 103.242 42.2568L103.623 41.0731C109.081 42.7523 114.374 44.9239 119.439 47.5611C122.913 49.3679 126.155 51.454 128.859 54.3054C129.023 54.4297 129.202 54.534 129.392 54.6155C129.432 54.2647 129.482 54.0122 129.491 53.7598L130.738 53.7966C130.711 54.0311 130.723 54.2776 130.717 54.5141C130.649 55.775 130.974 57.026 131.647 58.0941V58.095Z" fill="black"/>
<path d="M130.732 53.7737L129.485 53.7369C129.544 50.0159 129.647 46.3048 129.628 42.5887C129.597 39.4233 129.204 36.2718 128.456 33.1957C126.702 25.7815 122.851 19.7388 116.764 15.1332C112.249 11.7094 107.112 9.52385 101.701 7.93764C99.5161 7.30683 97.3094 6.75324 95.0852 6.27789C92.5389 5.71934 89.9946 5.14488 87.3549 5.19259C85.1366 5.22837 82.9153 5.1578 80.696 5.16874C76.0914 5.17054 71.5082 5.79335 67.0701 7.02031C57.4326 9.71766 50.3712 15.4851 46.0976 24.5958C44.5481 27.9774 43.3781 31.5203 42.6091 35.1596C42.1917 37.0549 41.7643 38.9492 41.3548 40.8445C41.2286 41.4438 41.1263 42.0471 41.013 42.6464C40.8997 43.2477 40.7844 43.7784 40.6283 44.5417C41.1104 44.2942 41.4145 44.174 41.6798 44C43.9432 42.5889 46.3812 41.4796 48.9321 40.7004C54.3387 38.9651 59.9023 38.005 65.5237 37.37C68.7686 36.9794 72.0335 36.7637 75.3013 36.7249C77.5191 36.6526 79.7393 36.711 81.9502 36.8999C84.8722 37.2358 87.8021 37.523 90.7201 37.9067C92.6442 38.1601 94.5534 38.5159 96.4388 38.9731C98.8579 39.5744 101.246 40.2949 103.624 41.0254L103.244 42.2091L102.395 41.9358C98.0659 40.5241 93.6162 39.513 89.1021 38.9154L85.9615 38.5547C81.2242 37.9325 76.437 37.7803 71.6697 38.1005C66.6885 38.3768 61.7321 39.0079 56.8403 39.9888C53.3524 40.642 49.9312 41.6118 46.6193 42.8859C43.2321 44.187 40.2155 46.2987 37.8336 49.0359C36.1506 51.0301 34.6191 53.1473 33.2519 55.3699C33.006 55.8013 32.8156 56.2622 32.6854 56.7414C32.6317 56.9193 32.748 57.1578 32.8046 57.4421C33.0928 57.4093 33.3751 57.3417 33.6464 57.2403C34.2785 56.9034 34.8957 56.5128 35.5089 56.1282C39.3072 53.7157 43.3767 51.7595 47.6331 50.3001C49.1557 49.7923 50.7141 49.3778 52.2506 48.9207C58.4817 47.107 64.9051 46.0349 71.3875 45.7264C74.1524 45.5853 76.9352 45.5455 79.6982 45.5674C82.64 45.5664 85.562 45.627 88.473 46.2849C90.6545 46.7729 92.8261 47.2718 94.9898 47.8155L94.6896 49.0081C93.1193 48.6148 91.5396 48.2602 89.9519 47.9447C87.7812 47.4786 85.5802 47.1667 83.3655 47.0114C80.647 46.8553 77.9234 46.8046 75.2009 46.8594C67.6565 46.9661 60.1576 48.0478 52.8906 50.0775C49.1595 51.1286 45.5292 52.5092 42.0426 54.2031C40.1046 55.1592 38.256 56.2892 36.3627 57.3476C35.8777 57.619 35.4165 57.93 34.9275 58.1934C34.5896 58.3833 34.2348 58.5413 33.8671 58.6645C32.2361 59.1565 31.0654 58.1258 31.3973 56.4462C31.5076 55.9046 31.7153 55.3877 32.0105 54.9206C33.8661 52.0166 35.7743 49.1512 38.2689 46.7332C38.7579 46.2859 39.0928 45.6966 39.223 45.0476C39.8905 41.6169 40.6028 38.195 41.3598 34.7829C42.5415 29.3793 44.3841 24.2311 47.4204 19.5599C50.5443 14.7296 54.9223 10.8391 60.0862 8.30438C64.7554 5.97675 69.7496 4.80796 74.9067 4.21761C77.719 3.93102 80.5448 3.79831 83.3715 3.82006C83.5484 3.80615 83.7233 3.77534 83.8942 3.72763C83.9837 3.53184 84.0612 3.33009 84.1228 3.12436C84.4886 1.64052 85.5967 0.977607 86.9434 0.604908C87.053 0.584539 87.164 0.572577 87.2754 0.569129C89.5418 0.313979 91.8365 0.577712 93.986 1.34037C95.5742 1.93172 96.5899 3.00112 96.5183 4.82983C96.5352 4.97593 96.574 5.11805 96.6336 5.25222C97.5341 5.49472 98.4842 5.77599 99.4472 6.00557C104.749 7.21936 109.829 9.2563 114.5 12.0423C122.427 16.8626 127.53 23.7659 129.732 32.8022C130.735 37.1896 131.152 41.6905 130.973 46.1875C130.896 48.707 130.806 51.2364 130.731 53.7737H130.732ZM95.0196 4.73939C95.1498 3.60539 94.5843 3.00807 93.6739 2.67016C91.642 1.90936 89.4546 1.6582 87.3032 1.93867C86.9723 1.97545 86.6532 2.07782 86.364 2.23982C86.0759 2.3678 85.8429 2.59432 85.7068 2.87867C85.5707 3.16303 85.5405 3.4866 85.6216 3.79124C87.2167 3.86081 88.7612 3.91448 90.3027 3.99697C91.8432 4.08045 93.3737 4.85766 95.0196 4.73939Z" fill="black"/>
<path d="M129.482 53.7398C129.477 53.9932 129.423 54.2447 129.383 54.5955C129.194 54.514 129.015 54.4096 128.851 54.2844C126.146 51.434 122.872 49.3439 119.43 47.541C114.365 44.9036 109.072 42.7317 103.614 41.0521C101.245 40.3137 98.8477 39.5931 96.4287 38.9998C94.5425 38.5427 92.6332 38.187 90.709 37.9343C87.793 37.5338 84.8631 37.2625 81.9391 36.9266C79.7281 36.7381 77.508 36.68 75.2902 36.7526C72.0217 36.7913 68.7578 37.0063 65.5125 37.3967C59.8922 38.0317 54.3315 38.9769 48.9219 40.7271C46.371 41.5061 43.9329 42.6154 41.6697 44.0267C41.4043 44.2007 41.1002 44.3209 40.6172 44.5684C40.7752 43.8051 40.8895 43.2366 41.0028 42.6741C41.1171 42.1096 41.2185 41.4715 41.3447 40.8722C41.7591 38.9759 42.1895 37.0826 42.599 35.1863C43.368 31.547 44.538 28.0041 46.0874 24.6225C50.361 15.5118 57.4225 9.74436 67.06 7.04701C71.498 5.82005 76.0813 5.19725 80.6858 5.19544C82.9052 5.1855 85.1264 5.25507 87.3447 5.22029C89.9845 5.17059 92.5288 5.74604 95.074 6.3036C97.2986 6.77891 99.5057 7.3325 101.691 7.96335C107.103 9.53863 112.226 11.7351 116.754 15.1589C122.841 19.7655 126.692 25.8092 128.446 33.2224C129.193 36.2983 129.586 39.4494 129.618 42.6145C129.644 46.3087 129.539 50.0277 129.482 53.7398ZM97.7595 22.5026C98.6182 20.2237 97.9016 18.3383 95.8622 17.4319C94.9433 16.9941 93.9223 16.8156 92.9094 16.9156C91.8965 17.0156 90.9302 17.3904 90.1146 17.9994C89.6694 18.3125 89.2182 18.6782 88.767 19.043C88.4072 18.6216 88.0971 18.2181 87.7602 17.8354C87.1459 17.0885 86.3514 16.5104 85.4517 16.1558C84.5519 15.8013 83.5766 15.6819 82.6179 15.8089C80.4135 16.0475 79.1553 17.4568 79.1444 19.6562C79.1666 21.2271 79.8018 22.7272 80.9144 23.8364C82.6895 25.7241 84.8736 27.18 87.299 28.0921C87.5554 28.1915 87.8337 28.2243 88.106 28.1845C90.7211 27.8391 93.2197 26.8894 95.404 25.4107C96.4724 24.7093 97.2957 23.6925 97.7595 22.5016V22.5026Z" fill="#64CCF5"/>
<path d="M95.8618 17.4308C97.9012 18.3352 98.6178 20.2215 97.7591 22.4995C97.2884 23.6926 96.4565 24.7087 95.3798 25.4055C93.1955 26.8843 90.6968 27.834 88.0818 28.1794C87.8085 28.2192 87.5302 28.1874 87.2738 28.087C84.8484 27.1749 82.6642 25.7191 80.8892 23.8312C79.7771 22.7221 79.1423 21.2225 79.1201 19.652C79.137 17.4327 80.3893 16.0423 82.5927 15.8038C83.5516 15.6768 84.5271 15.7963 85.427 16.151C86.327 16.5058 87.1216 17.0841 87.7359 17.8313C88.0729 18.2129 88.3939 18.6184 88.7427 19.0388C89.2168 18.684 89.6432 18.3232 90.0904 17.9953C90.9086 17.3819 91.8793 17.0049 92.897 16.9052C93.9146 16.8055 94.9401 16.9869 95.8618 17.4298V17.4308Z" fill="#A2DDF3"/>
<path d="M93.6706 2.68457C94.5809 3.02248 95.1544 3.62079 95.0162 4.75379C93.3664 4.85914 91.8796 4.09486 90.2984 4.0084C88.7181 3.91994 87.2134 3.87025 85.6173 3.80167C85.5367 3.49705 85.5673 3.17371 85.7036 2.8896C85.8398 2.60549 86.0727 2.37919 86.3607 2.25124C86.6499 2.08825 86.9689 1.98588 87.2989 1.94911C89.4506 1.6699 91.638 1.92242 93.6696 2.68457H93.6706Z" fill="#32BAE2"/>
</g>
</g>
</g>
<defs>
<linearGradient id="paint0_linear_238_509" x1="148.027" y1="101.585" x2="8.30032" y2="104.559" gradientUnits="userSpaceOnUse">
<stop stop-color="#B6509E"/>
<stop offset="1" stop-color="#2EBAC6"/>
</linearGradient>
<clipPath id="clip0_238_509">
<rect width="160" height="160" fill="white"/>
</clipPath>
<clipPath id="clip1_238_509">
<rect width="134.172" height="162" fill="white" transform="translate(13.9141)"/>
</clipPath>
</defs>
</svg>
