<svg width="71" height="20" viewBox="0 0 71 20" fill="none" xmlns="http://www.w3.org/2000/svg">
<path d="M43.5525 18.4727L36.758 1.99365C36.7043 1.84331 36.6761 1.68509 36.6743 1.52547C36.661 1.18752 36.7808 0.857824 37.008 0.607286C37.1245 0.488091 37.2652 0.395194 37.4206 0.334829C37.576 0.274463 37.7425 0.248025 37.9089 0.257286C38.1612 0.260187 38.4062 0.341875 38.6098 0.490923C38.8236 0.649623 38.991 0.862792 39.0943 1.1082L45.5553 17.2373L52.0171 1.1082C52.1198 0.862672 52.2869 0.649419 52.5007 0.490923C52.7043 0.341875 52.9493 0.260187 53.2016 0.257286C53.3682 0.247893 53.5349 0.274267 53.6904 0.334637C53.846 0.395006 53.9868 0.487972 54.1034 0.607286C54.3306 0.857824 54.4504 1.18752 54.4371 1.52547C54.4354 1.68479 54.4071 1.84271 54.3534 1.99274L47.5589 18.4727C47.1762 19.3246 46.6071 19.7455 45.8562 19.7455H45.2553C44.5043 19.7418 43.9362 19.3246 43.5525 18.4727Z" fill="url(#paint0_linear_238_475)"/>
<path d="M57.3255 19.2409C57.2101 19.1247 57.1196 18.9864 57.0592 18.8342C56.9989 18.682 56.9701 18.5191 56.9746 18.3555V1.65911C56.9685 1.32434 57.0946 1.00065 57.3255 0.758198C57.4385 0.638098 57.5759 0.543527 57.7285 0.480815C57.881 0.418103 58.0452 0.388696 58.21 0.394562H69.2455C69.4015 0.390202 69.5566 0.419165 69.7005 0.47952C69.8444 0.539875 69.9738 0.630233 70.08 0.744562C70.1933 0.851862 70.2829 0.98155 70.3434 1.12538C70.4038 1.26921 70.4336 1.42404 70.4309 1.58002C70.435 1.73365 70.4058 1.88634 70.3452 2.02759C70.2846 2.16883 70.1942 2.29527 70.08 2.3982C69.8563 2.61391 69.5562 2.73223 69.2455 2.72729H59.4791V8.80638H68.26C68.4161 8.80219 68.5712 8.83133 68.7151 8.89184C68.859 8.95235 68.9884 9.04284 69.0946 9.15729C69.2067 9.26525 69.2956 9.39494 69.356 9.53842C69.4163 9.68191 69.4468 9.83619 69.4455 9.99183C69.4496 10.1455 69.4203 10.2982 69.3597 10.4394C69.2992 10.5806 69.2087 10.7071 69.0946 10.81C68.9844 10.918 68.8539 11.0031 68.7107 11.0604C68.5675 11.1176 68.4143 11.1459 68.26 11.1437H59.4791V17.2546H69.2455C69.4016 17.2499 69.5569 17.2788 69.7009 17.3394C69.8448 17.3999 69.9741 17.4906 70.08 17.6055C70.1933 17.7125 70.2831 17.842 70.3435 17.9857C70.4039 18.1294 70.4337 18.2842 70.4309 18.44C70.435 18.5936 70.4058 18.7463 70.3452 18.8876C70.2846 19.0288 70.1942 19.1553 70.08 19.2582C69.857 19.4756 69.5569 19.5956 69.2455 19.5918H58.21C58.0457 19.604 57.8807 19.5787 57.7275 19.5179C57.5743 19.4571 57.4368 19.3624 57.3255 19.2409Z" fill="url(#paint1_linear_238_475)"/>
<path d="M38.2934 18.0055L31.4997 1.52548C31.117 0.674567 30.5452 0.257294 29.797 0.257294H29.1952C28.4434 0.257294 27.8761 0.674566 27.4925 1.53002L24.537 8.71184H22.3006C21.9779 8.71375 21.6689 8.8428 21.4407 9.07101C21.2125 9.29922 21.0834 9.6082 21.0815 9.93093V9.94729C21.0832 10.2701 21.2122 10.5792 21.4405 10.8075C21.6687 11.0357 21.9778 11.1647 22.3006 11.1664H23.5025L20.6843 18.0118C20.6307 18.1619 20.6024 18.3198 20.6006 18.4791C20.5872 18.8171 20.707 19.1468 20.9343 19.3973C21.0509 19.5167 21.1917 19.6098 21.3472 19.6703C21.5027 19.7309 21.6694 19.7574 21.8361 19.7482C22.0882 19.7445 22.333 19.6629 22.537 19.5146C22.7507 19.3553 22.918 19.1419 23.0215 18.8964L26.1261 11.1691H28.2615C28.5843 11.1672 28.8932 11.0381 29.1215 10.8099C29.3497 10.5817 29.4787 10.2728 29.4806 9.95002V9.90911C29.479 9.5863 29.35 9.27719 29.1217 9.04893C28.8935 8.82067 28.5843 8.69169 28.2615 8.69002H27.107L29.4952 2.76275L35.9561 18.8918C36.0588 19.1374 36.2259 19.3506 36.4397 19.5091C36.6435 19.6583 36.8889 19.74 37.1415 19.7427C37.308 19.752 37.4745 19.7256 37.6299 19.6652C37.7852 19.6048 37.9259 19.5119 38.0424 19.3927C38.2698 19.1419 38.3896 18.8119 38.3761 18.4737C38.3833 18.3134 38.355 18.1536 38.2934 18.0055Z" fill="url(#paint2_linear_238_475)"/>
<path d="M17.9935 18.0055L11.1999 1.52548C10.8181 0.674567 10.2472 0.257294 9.49533 0.257294H8.89442C8.14352 0.257294 7.57624 0.674566 7.1917 1.53002L4.23715 8.71184H1.99988C1.67722 8.71398 1.36838 8.84311 1.14022 9.07127C0.91206 9.29943 0.782933 9.60827 0.780789 9.93093V9.94729C0.784593 10.2688 0.914453 10.5761 1.14244 10.8029C1.37042 11.0296 1.67831 11.1579 1.99988 11.16H3.2017L0.383516 18.0055C0.32993 18.1555 0.301666 18.3134 0.299879 18.4727C0.286223 18.8107 0.406062 19.1405 0.633516 19.3909C0.750107 19.5104 0.890902 19.6035 1.04645 19.664C1.20199 19.7245 1.36868 19.7511 1.53533 19.7418C1.78747 19.7381 2.03229 19.6565 2.23624 19.5082C2.44992 19.349 2.6172 19.1355 2.72079 18.89L5.82533 11.1627H7.97624C8.29898 11.1608 8.60795 11.0318 8.83616 10.8036C9.06437 10.5754 9.19343 10.2664 9.19533 9.94366V9.90911C9.19366 9.5863 9.06469 9.27719 8.83642 9.04893C8.60816 8.82067 8.29905 8.69169 7.97624 8.69002H6.82442L9.19533 2.76184L15.6562 18.89C15.7592 19.1359 15.9266 19.3495 16.1408 19.5082C16.3447 19.6565 16.5896 19.7381 16.8417 19.7418C17.0083 19.7508 17.1749 19.7242 17.3305 19.6637C17.486 19.6031 17.6268 19.5102 17.7435 19.3909C17.9707 19.1404 18.0905 18.8107 18.0772 18.4727C18.0833 18.3128 18.0548 18.1534 17.9935 18.0055Z" fill="url(#paint3_linear_238_475)"/>
<defs>
<linearGradient id="paint0_linear_238_475" x1="1.29593" y1="20.1734" x2="72.2863" y2="5.07689" gradientUnits="userSpaceOnUse">
<stop stop-color="#31BAC6"/>
<stop offset="1" stop-color="#B6509E"/>
</linearGradient>
<linearGradient id="paint1_linear_238_475" x1="2.43062" y1="25.7898" x2="73.9343" y2="16.8293" gradientUnits="userSpaceOnUse">
<stop stop-color="#31BAC6"/>
<stop offset="1" stop-color="#B6509E"/>
</linearGradient>
<linearGradient id="paint2_linear_238_475" x1="0.777739" y1="18.3398" x2="71.7221" y2="3.26446" gradientUnits="userSpaceOnUse">
<stop stop-color="#31BAC6"/>
<stop offset="1" stop-color="#B6509E"/>
</linearGradient>
<linearGradient id="paint3_linear_238_475" x1="-0.685356" y1="13.2814" x2="70.3129" y2="-1.84126" gradientUnits="userSpaceOnUse">
<stop stop-color="#31BAC6"/>
<stop offset="1" stop-color="#B6509E"/>
</linearGradient>
</defs>
</svg>
