<svg width="14" height="12" viewBox="0 0 14 12" fill="none" xmlns="http://www.w3.org/2000/svg">
<path fill-rule="evenodd" clip-rule="evenodd" d="M6.76537 11.3659C6.61535 11.5159 6.41191 11.6002 6.19977 11.6002C5.98764 11.6002 5.7842 11.5159 5.63417 11.3659L0.834174 6.56593C0.684197 6.4159 0.599945 6.21246 0.599945 6.00033C0.599945 5.78819 0.684197 5.58475 0.834174 5.43473L5.63417 0.634726C5.78506 0.488999 5.98714 0.408364 6.19689 0.410186C6.40665 0.412009 6.6073 0.496144 6.75563 0.644471C6.90395 0.792797 6.98809 0.993447 6.98991 1.2032C6.99174 1.41296 6.9111 1.61504 6.76537 1.76593L3.33097 5.20033H12.5998C12.8119 5.20033 13.0154 5.28461 13.1655 5.43464C13.3155 5.58467 13.3998 5.78815 13.3998 6.00033C13.3998 6.2125 13.3155 6.41598 13.1655 6.56601C13.0154 6.71604 12.8119 6.80033 12.5998 6.80033H3.33097L6.76537 10.2347C6.91535 10.3847 6.9996 10.5882 6.9996 10.8003C6.9996 11.0125 6.91535 11.2159 6.76537 11.3659Z" fill="#A5A8B6"/>
</svg>
