<svg width="102" height="101" viewBox="0 0 102 101" fill="none" xmlns="http://www.w3.org/2000/svg">
<path d="M50.9216 0.309975C78.6031 0.309975 101.078 22.7853 101.078 50.4669C101.078 78.1485 78.6031 100.624 50.9216 100.624C23.24 100.624 0.764648 78.1485 0.764648 50.4669C0.764648 22.7853 23.24 0.309975 50.9216 0.309975Z" fill="#0E9F6E"/>
<path d="M49.0223 71.2452C46.2922 73.9754 41.861 73.9754 39.1322 71.2452L23.8108 55.9238C21.0807 53.195 21.0807 48.7652 23.8108 46.0364C26.5396 43.3062 30.9695 43.3062 33.6996 46.0364L42.8281 55.1636C43.5173 55.8514 44.6372 55.8514 45.3277 55.1636L70.0438 30.4462C72.7726 27.716 77.2025 27.716 79.9326 30.4462C81.2436 31.7572 81.9802 33.536 81.9802 35.3899C81.9802 37.2438 81.2436 39.0226 79.9326 40.3336L49.0223 71.2452Z" fill="white"/>
</svg>
