<svg width="30" height="30" viewBox="0 0 30 30" fill="none" xmlns="http://www.w3.org/2000/svg">
<path fill-rule="evenodd" clip-rule="evenodd" d="M14.9999 0.600268C11.1808 0.600268 7.51809 2.1174 4.81757 4.81793C2.11704 7.51845 0.599905 11.1811 0.599904 15.0003C0.599904 18.8194 2.11704 22.4821 4.81756 25.1826C7.51809 27.8831 11.1808 29.4003 14.9999 29.4003C18.819 29.4003 22.4817 27.8831 25.1822 25.1826C27.8828 22.4821 29.3999 18.8194 29.3999 15.0003C29.3999 11.1812 27.8828 7.51846 25.1822 4.81793C22.4817 2.11741 18.819 0.600268 14.9999 0.600268ZM8.3273 16.2729L13.7273 21.6729C14.0649 22.0103 14.5226 22.1999 14.9999 22.1999C15.4772 22.1999 15.935 22.0103 16.2725 21.6729L21.6725 16.2729C22.0004 15.9334 22.1818 15.4787 22.1777 15.0067C22.1736 14.5348 21.9843 14.0833 21.6506 13.7496C21.3168 13.4159 20.8654 13.2266 20.3934 13.2225C19.9215 13.2184 19.4668 13.3998 19.1273 13.7277L16.7999 16.0551L16.7999 9.60027C16.7999 9.12288 16.6103 8.66504 16.2727 8.32748C15.9351 7.98991 15.4773 7.80027 14.9999 7.80027C14.5225 7.80027 14.0647 7.98991 13.7271 8.32748C13.3895 8.66504 13.1999 9.12288 13.1999 9.60027L13.1999 16.0551L10.8725 13.7277C10.533 13.3998 10.0783 13.2184 9.60638 13.2225C9.13443 13.2266 8.68297 13.4159 8.34923 13.7496C8.0155 14.0833 7.82619 14.5348 7.82209 15.0067C7.81799 15.4787 7.99942 15.9334 8.3273 16.2729Z" fill="url(#paint0_linear_238_607)"/>
<defs>
<linearGradient id="paint0_linear_238_607" x1="29.3999" y1="15.0003" x2="0.599904" y2="15.0003" gradientUnits="userSpaceOnUse">
<stop stop-color="#FCCB90"/>
<stop offset="1" stop-color="#D57EEB"/>
</linearGradient>
</defs>
</svg>
