<svg width="9" height="6" viewBox="0 0 9 6" fill="none" xmlns="http://www.w3.org/2000/svg">
<path fill-rule="evenodd" clip-rule="evenodd" d="M0.234229 0.83351C0.384251 0.683533 0.587698 0.599281 0.799829 0.599281C1.01196 0.599281 1.21541 0.683533 1.36543 0.83351L3.99983 3.46791L6.63423 0.83351C6.70803 0.757102 6.7963 0.696156 6.89391 0.654229C6.99151 0.612301 7.09649 0.590232 7.20271 0.589309C7.30893 0.588386 7.41428 0.608628 7.51259 0.648852C7.61091 0.689077 7.70023 0.748479 7.77534 0.823594C7.85046 0.898708 7.90986 0.988029 7.95009 1.08635C7.99031 1.18466 8.01055 1.29001 8.00963 1.39623C8.00871 1.50245 7.98664 1.60743 7.94471 1.70503C7.90278 1.80264 7.84184 1.89091 7.76543 1.96471L4.56543 5.16471C4.41541 5.31469 4.21196 5.39894 3.99983 5.39894C3.7877 5.39894 3.58425 5.31469 3.43423 5.16471L0.234229 1.96471C0.0842524 1.81469 0 1.61124 0 1.39911C0 1.18698 0.0842524 0.983532 0.234229 0.83351Z" fill="#EAEBEF"/>
</svg>
