<svg width="12" height="10" viewBox="0 0 12 10" fill="none" xmlns="http://www.w3.org/2000/svg">
<path fill-rule="evenodd" clip-rule="evenodd" d="M6.293 0.292593C6.48053 0.105121 6.73484 -0.000194056 7 -0.000194033C7.26517 -0.00019401 7.51947 0.105121 7.707 0.292593L11.707 4.29259C11.8945 4.48012 11.9998 4.73443 11.9998 4.99959C11.9998 5.26476 11.8945 5.51906 11.707 5.70659L7.707 9.70659C7.5184 9.88875 7.2658 9.98954 7.0036 9.98727C6.7414 9.98499 6.49059 9.87982 6.30518 9.69441C6.11977 9.509 6.0146 9.25819 6.01233 8.99599C6.01005 8.7338 6.11084 8.48119 6.293 8.29259L8.586 5.99959L1 5.99959C0.734784 5.99959 0.48043 5.89423 0.292894 5.7067C0.105358 5.51916 4.12854e-07 5.26481 4.3604e-07 4.99959C4.59226e-07 4.73438 0.105358 4.48002 0.292894 4.29249C0.48043 4.10495 0.734784 3.99959 1 3.99959L8.586 3.99959L6.293 1.70659C6.10553 1.51906 6.00021 1.26476 6.00021 0.999592C6.00021 0.734428 6.10553 0.48012 6.293 0.292593Z" fill="#EAEBEF"/>
</svg>
