<svg width="14" height="13" viewBox="0 0 14 13" fill="none" xmlns="http://www.w3.org/2000/svg">
<path d="M1.87869 2.21201C1.60011 2.49058 1.37913 2.8213 1.22836 3.18528C1.0776 3.54926 1 3.93937 1 4.33334C1 4.72731 1.0776 5.11742 1.22836 5.4814C1.37913 5.84538 1.60011 6.1761 1.87869 6.45467L7.00003 11.576L12.1214 6.45467C12.684 5.89206 13 5.12899 13 4.33334C13 3.53768 12.684 2.77462 12.1214 2.21201C11.5587 1.64939 10.7957 1.33332 10 1.33332C9.20437 1.33332 8.4413 1.64939 7.87869 2.21201L7.00003 3.09067L6.12136 2.21201C5.84278 1.93343 5.51206 1.71244 5.14808 1.56168C4.78411 1.41091 4.39399 1.33331 4.00003 1.33331C3.60606 1.33331 3.21595 1.41091 2.85197 1.56168C2.48799 1.71244 2.15727 1.93343 1.87869 2.21201V2.21201Z" stroke="url(#paint0_linear_264_2057)" stroke-width="1.33333" stroke-linecap="round" stroke-linejoin="round"/>
<defs>
<linearGradient id="paint0_linear_264_2057" x1="0.567354" y1="11.1238" x2="12.0104" y2="1.94626" gradientUnits="userSpaceOnUse">
<stop stop-color="#30BAC6"/>
<stop offset="1" stop-color="#B6509E"/>
</linearGradient>
</defs>
</svg>
