<svg width="18" height="18" viewBox="0 0 18 18" fill="none" xmlns="http://www.w3.org/2000/svg">
<path d="M5.85667 6.5C6.31417 5.52917 7.54833 4.83333 9 4.83333C10.8417 4.83333 12.3333 5.9525 12.3333 7.33333C12.3333 8.5 11.2683 9.47917 9.82833 9.75583C9.37667 9.8425 9 10.2058 9 10.6667M9 13.1667H9.00833M16.5 9C16.5 9.98491 16.306 10.9602 15.9291 11.8701C15.5522 12.7801 14.9997 13.6069 14.3033 14.3033C13.6069 14.9997 12.7801 15.5522 11.8701 15.9291C10.9602 16.306 9.98491 16.5 9 16.5C8.01509 16.5 7.03982 16.306 6.12987 15.9291C5.21993 15.5522 4.39314 14.9997 3.6967 14.3033C3.00026 13.6069 2.44781 12.7801 2.0709 11.8701C1.69399 10.9602 1.5 9.98491 1.5 9C1.5 7.01088 2.29018 5.10322 3.6967 3.6967C5.10322 2.29018 7.01088 1.5 9 1.5C10.9891 1.5 12.8968 2.29018 14.3033 3.6967C15.7098 5.10322 16.5 7.01088 16.5 9Z" stroke="#A5A8B6" stroke-width="1.66667" stroke-linecap="round" stroke-linejoin="round"/>
</svg>
