<svg width="30" height="30" viewBox="0 0 30 30" fill="none" xmlns="http://www.w3.org/2000/svg">
<path fill-rule="evenodd" clip-rule="evenodd" d="M15.0001 29.401C18.8192 29.401 22.4819 27.8839 25.1824 25.1833C27.883 22.4828 29.4001 18.8201 29.4001 15.001C29.4001 11.1819 27.883 7.5192 25.1824 4.81868C22.4819 2.11815 18.8192 0.601013 15.0001 0.601013C11.181 0.601013 7.51828 2.11815 4.81776 4.81868C2.11724 7.5192 0.600098 11.1819 0.600098 15.001C0.600098 18.8201 2.11724 22.4828 4.81776 25.1833C7.51828 27.8839 11.181 29.401 15.0001 29.401ZM21.6727 13.7284L16.2727 8.32841C15.9351 7.99096 15.4774 7.8014 15.0001 7.8014C14.5228 7.8014 14.065 7.99096 13.7275 8.32841L8.3275 13.7284C7.99961 14.0679 7.81818 14.5226 7.82228 14.9945C7.82639 15.4665 8.01569 15.918 8.34942 16.2517C8.68316 16.5854 9.13462 16.7747 9.60658 16.7788C10.0785 16.7829 10.5332 16.6015 10.8727 16.2736L13.2001 13.9462V20.401C13.2001 20.8784 13.3897 21.3362 13.7273 21.6738C14.0649 22.0114 14.5227 22.201 15.0001 22.201C15.4775 22.201 15.9353 22.0114 16.2729 21.6738C16.6105 21.3362 16.8001 20.8784 16.8001 20.401V13.9462L19.1275 16.2736C19.467 16.6015 19.9217 16.7829 20.3936 16.7788C20.8656 16.7747 21.317 16.5854 21.6508 16.2517C21.9845 15.918 22.1738 15.4665 22.1779 14.9945C22.182 14.5226 22.0006 14.0679 21.6727 13.7284Z" fill="url(#paint0_linear_238_599)"/>
<defs>
<linearGradient id="paint0_linear_238_599" x1="0.600098" y1="15.001" x2="29.4001" y2="15.001" gradientUnits="userSpaceOnUse">
<stop stop-color="#D4FC79"/>
<stop offset="1" stop-color="#96E6A1"/>
</linearGradient>
</defs>
</svg>
