<svg width="14" height="14" viewBox="0 0 14 14" fill="none" xmlns="http://www.w3.org/2000/svg">
<path d="M5 11.6667V5C5 4.64638 5.14048 4.30724 5.39052 4.05719C5.64057 3.80714 5.97971 3.66667 6.33333 3.66667H7.66667C8.02029 3.66667 8.35943 3.80714 8.60948 4.05719C8.85952 4.30724 9 4.64638 9 5V11.6667M5 11.6667C5 12.0203 5.14048 12.3594 5.39052 12.6095C5.64057 12.8595 5.97971 13 6.33333 13H7.66667C8.02029 13 8.35943 12.8595 8.60948 12.6095C8.85952 12.3594 9 12.0203 9 11.6667M5 11.6667V7.66667C5 7.31304 4.85952 6.97391 4.60948 6.72386C4.35943 6.47381 4.02029 6.33333 3.66667 6.33333H2.33333C1.97971 6.33333 1.64057 6.47381 1.39052 6.72386C1.14048 6.97391 1 7.31304 1 7.66667V11.6667C1 12.0203 1.14048 12.3594 1.39052 12.6095C1.64057 12.8595 1.97971 13 2.33333 13H3.66667C4.02029 13 4.35943 12.8595 4.60948 12.6095C4.85952 12.3594 5 12.0203 5 11.6667ZM9 11.6667V2.33333C9 1.97971 9.14048 1.64057 9.39052 1.39052C9.64057 1.14048 9.97971 1 10.3333 1H11.6667C12.0203 1 12.3594 1.14048 12.6095 1.39052C12.8595 1.64057 13 1.97971 13 2.33333V11.6667C13 12.0203 12.8595 12.3594 12.6095 12.6095C12.3594 12.8595 12.0203 13 11.6667 13H10.3333C9.97971 13 9.64057 12.8595 9.39052 12.6095C9.14048 12.3594 9 12.0203 9 11.6667Z" stroke="url(#paint0_linear_264_2040)" stroke-width="1.33333" stroke-linecap="round" stroke-linejoin="round"/>
<defs>
<linearGradient id="paint0_linear_264_2040" x1="0.567355" y1="12.4702" x2="13.3708" y2="3.70539" gradientUnits="userSpaceOnUse">
<stop stop-color="#30BAC6"/>
<stop offset="1" stop-color="#B6509E"/>
</linearGradient>
</defs>
</svg>
